<?xml version="1.0" encoding="UTF-8" standalone="no"?>
<!DOCTYPE svg PUBLIC "-//W3C//DTD SVG 1.1//EN" "http://www.w3.org/Graphics/SVG/1.1/DTD/svg11.dtd">
<svg width="460.80" height="281.04" viewBox="0.00 0.00 1920.00 1171.00" xmlns="http://www.w3.org/2000/svg" xmlns:xlink="http://www.w3.org/1999/xlink">
<g stroke-linecap="round" id="Layer_7"/>
<g stroke-linecap="round" transform="translate(0.00, 22.00)" id="Layer_1">
<path d="M943.81,498.75 C943.81,498.75 943.75,498.64 943.75,498.64 C944.22,496.20 949.38,491.82 951.69,490.90 C952.83,490.46 958.36,489.20 958.81,489.03 C958.88,489.00 959.00,488.95 959.18,488.88" fill="none" stroke="rgb(0, 0, 0)" stroke-width="8.00" stroke-opacity="1.00" stroke-linejoin="round"/>
<path d="M959.31,485.38 C959.32,485.37 959.16,485.95 959.03,486.38 C958.57,487.79 957.45,489.48 956.96,490.12 C956.87,490.25 956.78,490.35 956.70,490.42" fill="none" stroke="rgb(0, 0, 0)" stroke-width="8.00" stroke-opacity="1.00" stroke-linejoin="round"/>
<path d="M951.69,487.12 C951.69,487.12 951.78,487.00 951.78,487.00 C952.47,486.77 951.01,490.85 950.77,491.28 C950.75,491.31 950.70,491.40 950.63,491.54" fill="none" stroke="rgb(0, 0, 0)" stroke-width="8.00" stroke-opacity="1.00" stroke-linejoin="round"/>
<path d="M945.38,491.56 C945.47,491.83 945.54,492.00 945.68,492.19 C945.93,492.51 946.13,492.75 946.29,492.93 C946.39,493.05 946.53,493.18 946.71,493.34 C946.79,493.40 946.86,493.47 946.94,493.53" fill="none" stroke="rgb(0, 0, 0)" stroke-width="8.00" stroke-opacity="1.00" stroke-linejoin="round"/>
<path d="M926.75,507.62 C926.53,507.37 926.34,507.19 926.19,507.10 C924.71,506.14 921.86,506.21 920.48,506.45" fill="none" stroke="rgb(0, 0, 0)" stroke-width="8.00" stroke-opacity="1.00" stroke-linejoin="round"/>
<path d="M915.75,508.59 C915.75,508.59 914.32,510.04 914.32,510.04" fill="none" stroke="rgb(0, 0, 0)" stroke-width="8.00" stroke-opacity="1.00" stroke-linejoin="round"/>
<path d="M912.37,514.49" fill="none" stroke="rgb(0, 0, 0)" stroke-width="8.00" stroke-opacity="1.00" stroke-linejoin="round"/>
<path d="M915.85,509.25" fill="none" stroke="rgb(0, 0, 0)" stroke-width="8.00" stroke-opacity="1.00" stroke-linejoin="round"/>
<path d="M929.62,505.50 C929.62,505.50 929.50,505.44 929.50,505.44 C929.50,505.44 929.50,505.38 929.50,505.38 C930.43,508.52 931.78,514.50 932.01,516.20 C932.12,517.07 932.21,517.70 932.28,518.06 C932.32,518.29 932.39,518.55 932.49,518.84" fill="none" stroke="rgb(0, 0, 0)" stroke-width="8.00" stroke-opacity="1.00" stroke-linejoin="round"/>
<path d="M932.50,518.75 C932.20,519.06 931.99,519.97 932.22,520.56 C932.76,521.82 939.55,522.68 940.49,523.51 C940.54,523.56 940.63,523.60 940.75,523.62" fill="none" stroke="rgb(0, 0, 0)" stroke-width="8.00" stroke-opacity="1.00" stroke-linejoin="round"/>
<path d="M940.00,520.00 C940.00,520.00 939.88,520.00 939.88,520.00 C939.86,519.96 940.49,519.13 940.98,518.80 C941.54,518.41 943.38,517.62 943.98,517.43 C944.30,517.34 944.62,517.24 944.93,517.14" fill="none" stroke="rgb(0, 0, 0)" stroke-width="8.00" stroke-opacity="1.00" stroke-linejoin="round"/>
<path d="M940.88,534.25 C940.88,534.25 940.75,534.25 940.75,534.25 C940.75,534.25 940.62,534.05 940.62,534.05 C941.17,532.00 952.08,522.20 955.70,519.93 C956.01,519.73 956.31,519.62 956.60,519.60 C956.93,520.10 954.74,528.60 953.92,530.06 C953.14,531.37 950.40,532.44 947.20,533.02 C945.26,533.37 939.16,534.72 938.86,534.72 C938.86,534.72 938.75,534.51 938.75,534.51" fill="none" stroke="rgb(0, 0, 0)" stroke-width="8.00" stroke-opacity="1.00" stroke-linejoin="round"/>
<path d="M956.25,521.12 C956.23,521.11 956.41,520.21 956.86,518.35 C956.91,518.17 957.03,517.72 957.08,517.49 C957.08,517.49 956.38,520.24 956.38,520.24 C956.72,520.28 956.95,520.26 957.07,520.16 C957.19,520.06 957.38,519.76 957.62,519.25" fill="none" stroke="rgb(0, 0, 0)" stroke-width="8.00" stroke-opacity="1.00" stroke-linejoin="round"/>
<path d="M949.62,499.38 C949.69,499.29 951.85,498.76 953.06,498.23 C955.22,497.26 957.53,494.09 957.88,493.35 C957.96,493.17 958.08,492.85 958.24,492.40" fill="none" stroke="rgb(0, 0, 0)" stroke-width="8.00" stroke-opacity="1.00" stroke-linejoin="round"/>
<path d="M950.62,493.62 C950.62,493.62 949.57,494.00 949.57,494.00 C949.42,494.89 951.40,497.06 952.29,497.10 C955.34,497.15 951.66,492.85 951.55,492.79 C951.37,493.42 951.94,494.82 952.52,495.40 C952.98,495.83 953.84,495.53 954.07,494.87 C954.53,493.46 953.67,491.84 953.56,491.73 C953.56,491.73 953.61,494.06 953.61,494.06 C953.61,494.06 954.38,492.55 954.38,492.55 C954.23,492.71 953.97,494.60 954.19,495.60 C954.21,495.69 954.29,495.93 954.41,496.33 C954.44,496.42 954.47,496.52 954.50,496.62" fill="none" stroke="rgb(0, 0, 0)" stroke-width="8.00" stroke-opacity="1.00" stroke-linejoin="round"/>
<path d="M918.88,516.25 C918.88,516.25 917.96,516.38 917.96,516.38 C918.35,516.54 919.92,516.61 920.97,516.31 C923.75,515.48 925.37,512.34 925.44,511.93 C925.47,511.70 925.49,511.19 925.50,510.40" fill="none" stroke="rgb(0, 0, 0)" stroke-width="8.00" stroke-opacity="1.00" stroke-linejoin="round"/>
<path d="M917.62,510.50 C917.62,510.50 916.86,510.06 916.86,510.06 C916.75,510.52 920.11,513.27 921.44,513.54 C922.66,513.77 923.02,513.17 923.10,512.92 C923.10,512.92 919.63,508.81 919.63,508.81 C918.98,509.84 922.33,512.12 922.99,511.98 C922.99,511.98 920.42,507.85 920.42,507.85 C919.70,508.66 923.16,511.49 924.04,511.06 C924.04,511.06 923.03,508.00 923.03,508.00 C923.03,508.00 923.81,511.19 923.81,511.19 C923.71,510.26 921.52,507.34 920.87,507.16 C920.79,507.15 920.71,507.14 920.62,507.12" fill="none" stroke="rgb(0, 0, 0)" stroke-width="8.00" stroke-opacity="1.00" stroke-linejoin="round"/>
<path d="M919.25,508.00 C919.25,508.00 918.90,508.00 918.90,508.00 C918.90,508.00 918.69,508.18 918.69,508.18 C918.41,508.50 920.19,510.75 921.28,511.36 C921.39,511.41 921.52,511.47 921.66,511.53 C921.73,511.56 921.80,511.59 921.88,511.62" fill="none" stroke="rgb(0, 0, 0)" stroke-width="8.00" stroke-opacity="1.00" stroke-linejoin="round"/>
<path d="M920.88,508.00 C919.37,507.98 918.47,507.98 918.18,508.01 C917.30,508.13 918.00,510.01 919.99,510.61 C920.19,510.67 920.57,510.76 921.12,510.88" fill="none" stroke="rgb(0, 0, 0)" stroke-width="8.00" stroke-opacity="1.00" stroke-linejoin="round"/>
<path d="M924.00,507.50 C923.95,507.42 923.15,506.87 922.73,506.77 C921.68,506.53 917.98,508.04 916.74,509.43 C915.98,510.29 913.04,514.00 912.89,514.54 C912.88,514.58 912.87,514.60 912.88,514.62" fill="none" stroke="rgb(0, 0, 0)" stroke-width="8.00" stroke-opacity="1.00" stroke-linejoin="round"/>
<path d="M925.12,507.00 C924.93,506.80 924.78,506.67 924.69,506.60 C923.96,506.11 922.45,505.75 921.71,505.67" fill="none" stroke="rgb(0, 0, 0)" stroke-width="8.00" stroke-opacity="1.00" stroke-linejoin="round"/>
<path d="M943.25,499.62 C943.32,499.35 943.43,499.09 944.05,497.89 C945.68,494.71 947.11,492.69 948.14,491.73 C950.68,489.39 955.17,489.00 956.08,489.00 C956.21,489.00 956.31,489.00 956.36,489.00" fill="none" stroke="rgb(0, 0, 0)" stroke-width="8.00" stroke-opacity="1.00" stroke-linejoin="round"/>
<path d="M944.38,491.25 C944.51,491.26 944.60,491.25 944.73,491.35 C945.24,491.77 946.10,492.53 946.85,493.22 C946.90,493.27 947.05,493.40 946.99,493.37" fill="none" stroke="rgb(0, 0, 0)" stroke-width="8.00" stroke-opacity="1.00" stroke-linejoin="round"/>
<path d="M950.25,487.50 C950.25,487.50 950.38,487.50 950.38,487.50 C949.90,487.50 949.25,487.57 948.75,487.74 C946.64,488.46 942.08,494.04 941.31,496.36 C941.22,496.69 941.12,497.02 941.02,497.35 C940.99,497.45 940.95,497.53 940.91,497.58" fill="none" stroke="rgb(0, 0, 0)" stroke-width="8.00" stroke-opacity="1.00" stroke-linejoin="round"/>
<path d="M907.38,514.75 C907.47,514.76 907.57,514.76 907.67,514.75 C908.25,514.67 909.92,514.16 910.47,513.99 C911.17,513.79 911.87,513.58 912.57,513.37 C912.79,513.29 912.96,513.22 913.09,513.15" fill="none" stroke="rgb(0, 0, 0)" stroke-width="8.00" stroke-opacity="1.00" stroke-linejoin="round"/>
<path d="M909.38,514.25 C909.38,514.25 909.38,514.42 909.38,514.42 C909.73,515.02 913.60,514.95 914.59,513.98 C914.69,513.88 914.90,513.65 915.23,513.27" fill="none" stroke="rgb(0, 0, 0)" stroke-width="8.00" stroke-opacity="1.00" stroke-linejoin="round"/>
<path d="M911.00,509.25 C911.00,509.25 911.05,509.12 911.05,509.12 C912.05,509.72 915.91,509.75 917.15,509.38 C917.31,509.32 917.68,509.20 918.24,509.00" fill="none" stroke="rgb(0, 0, 0)" stroke-width="8.00" stroke-opacity="1.00" stroke-linejoin="round"/>
<path d="M915.75,505.62 C916.22,505.83 918.27,507.02 919.17,507.29 C919.39,507.36 919.60,507.40 919.82,507.43 C919.95,507.44 920.23,507.47 920.68,507.50" fill="none" stroke="rgb(0, 0, 0)" stroke-width="8.00" stroke-opacity="1.00" stroke-linejoin="round"/>
<path d="M925.38,503.25 C925.29,503.26 925.04,503.16 924.94,503.12 C922.56,502.36 918.24,504.03 915.71,505.96 C915.07,506.45 914.45,507.03 913.95,507.54" fill="none" stroke="rgb(0, 0, 0)" stroke-width="8.00" stroke-opacity="1.00" stroke-linejoin="round"/>
<path d="M959.00,480.25 C959.00,480.25 959.00,480.19 959.00,480.19 C958.91,480.14 958.26,479.80 956.91,479.60 C953.92,479.21 943.05,481.96 938.74,484.53 C936.89,485.66 936.11,486.68 936.15,487.00 C936.21,487.30 936.88,487.57 937.76,487.28 C938.50,487.02 944.71,483.33 946.25,482.56 C948.29,481.59 953.38,480.19 956.44,479.92 C956.69,479.90 956.99,479.88 957.35,479.88" fill="none" stroke="rgb(0, 0, 0)" stroke-width="8.00" stroke-opacity="1.00" stroke-linejoin="round"/>
<path d="M907.50,509.75 C907.50,509.75 907.33,509.71 907.33,509.71 C907.15,509.48 908.00,506.46 908.67,505.06 C910.45,501.50 917.31,495.50 918.65,495.42 C919.05,495.41 919.73,495.84 919.82,496.08 C919.92,496.41 919.29,497.63 918.17,498.42 C917.48,498.90 911.27,502.51 910.08,504.03 C909.43,504.89 908.94,505.61 908.84,505.85 C908.78,506.03 908.72,506.20 908.66,506.37" fill="none" stroke="rgb(0, 0, 0)" stroke-width="8.00" stroke-opacity="1.00" stroke-linejoin="round"/>
<path d="M908.62,509.50 C908.78,509.70 909.43,510.43 909.99,511.02 C910.33,511.38 915.36,517.04 917.23,519.05 C917.79,519.69 922.03,528.47 925.27,531.56 C927.32,533.46 932.25,536.82 935.75,538.58" fill="none" stroke="rgb(0, 0, 0)" stroke-width="8.00" stroke-opacity="1.00" stroke-linejoin="round"/>
<path d="M974.25,488.75 C974.25,488.75 974.25,488.62 974.25,488.62 C974.62,492.11 974.90,495.74 975.15,500.97 C975.36,506.47 975.72,511.29 975.98,514.63 C976.09,516.77 974.93,520.63 972.97,524.06 C969.50,530.02 962.10,542.79 960.08,544.69 C958.98,545.69 956.49,546.40 954.92,546.25 C954.17,546.17 948.46,544.93 947.63,544.78" fill="none" stroke="rgb(0, 0, 0)" stroke-width="8.00" stroke-opacity="1.00" stroke-linejoin="round"/>
<path d="M972.62,489.00 C972.62,489.00 972.69,488.43 972.69,488.43 C973.09,488.48 974.10,490.86 974.51,492.76 C974.83,494.33 975.17,503.00 975.22,503.63 C975.27,504.14 975.36,504.78 975.51,505.54 C975.55,505.71 975.58,505.87 975.62,506.00" fill="none" stroke="rgb(0, 0, 0)" stroke-width="8.00" stroke-opacity="1.00" stroke-linejoin="round"/>
<path d="M978.25,513.75 C978.25,513.75 977.75,512.37 977.75,512.37 C978.39,516.93 982.15,529.24 984.71,535.41 C985.83,538.09 988.70,543.72 990.48,546.38 C992.46,549.26 997.12,552.85 1000.10,553.55 C1000.71,553.68 1004.42,554.28 1005.75,554.50" fill="none" stroke="rgb(0, 0, 0)" stroke-width="8.00" stroke-opacity="1.00" stroke-linejoin="round"/>
<path d="M949.25,546.75 C949.25,546.75 949.25,546.25 949.25,546.25 C951.83,552.76 954.36,561.38 954.50,567.88 C954.51,568.18 954.51,568.55 954.50,568.99" fill="none" stroke="rgb(0, 0, 0)" stroke-width="8.00" stroke-opacity="1.00" stroke-linejoin="round"/>
<path d="M889.40,577.08 C891.07,574.97 900.47,568.50 906.10,564.69 C913.90,559.50 922.22,552.94 925.56,549.19 C926.82,547.76 931.13,542.63 932.22,541.61 C936.73,537.51 938.88,537.01 938.99,537.03 C939.34,537.69 938.91,541.81 938.44,543.21 C937.75,545.14 936.03,547.97 934.55,549.50 C932.65,551.44 924.33,558.66 923.51,559.53" fill="none" stroke="rgb(0, 0, 0)" stroke-width="8.00" stroke-opacity="1.00" stroke-linejoin="round"/>
<path d="M923.40,560.36 C923.40,560.36 920.50,562.94 920.50,562.94 C920.50,562.94 920.34,563.14 920.34,563.14" fill="none" stroke="rgb(0, 0, 0)" stroke-width="8.00" stroke-opacity="1.00" stroke-linejoin="round"/>
<path d="M923.00,560.12 C923.02,560.10 923.04,560.08 923.06,560.06 C923.23,559.91 925.75,557.82 926.72,557.05 C931.15,553.66 943.35,542.87 944.35,542.45 C945.10,542.17 946.02,542.21 946.50,542.58 C947.40,543.33 946.88,545.58 946.77,545.88" fill="none" stroke="rgb(0, 0, 0)" stroke-width="8.00" stroke-opacity="1.00" stroke-linejoin="round"/>
<path d="M943.71,550.38 C942.69,551.35 931.07,560.16 927.85,563.10 C927.41,563.52 926.41,564.55 925.91,565.08" fill="none" stroke="rgb(0, 0, 0)" stroke-width="8.00" stroke-opacity="1.00" stroke-linejoin="round"/>
<path d="M925.75,565.00 C925.72,565.01 925.79,564.95 925.81,564.94 C926.33,564.59 930.22,561.99 933.76,559.04 C935.80,557.36 945.89,550.08 946.42,549.92 C947.13,549.72 947.01,553.30 945.38,556.32 C943.46,559.78 938.71,563.66 930.38,569.72 C929.35,570.47 927.44,572.07 926.16,573.24 C925.84,573.52 925.52,573.85 925.17,574.20" fill="none" stroke="rgb(0, 0, 0)" stroke-width="8.00" stroke-opacity="1.00" stroke-linejoin="round"/>
<path d="M924.75,573.75 C924.75,573.75 925.00,573.50 925.00,573.50 C927.15,573.77 931.33,573.15 933.69,572.49 C935.72,571.90 942.68,569.82 942.91,569.79 C943.96,569.72 944.56,570.20 944.56,570.74 C944.51,571.93 941.00,575.52 937.86,576.93 C935.44,577.97 924.14,580.44 921.57,581.11 C921.36,581.17 921.18,581.21 921.04,581.24" fill="none" stroke="rgb(0, 0, 0)" stroke-width="8.00" stroke-opacity="1.00" stroke-linejoin="round"/>
<path d="M923.38,581.38 C923.27,581.28 923.14,581.22 922.78,581.13 C921.93,580.94 919.36,581.18 918.25,581.77 C916.41,582.82 912.12,587.97 911.50,588.59 C909.62,590.46 896.36,597.26 896.16,597.33 C896.05,597.37 895.75,597.47 895.26,597.62" fill="none" stroke="rgb(0, 0, 0)" stroke-width="8.00" stroke-opacity="1.00" stroke-linejoin="round"/>
<path d="M904.62,564.25 C904.62,564.25 904.62,564.42 904.62,564.42 C904.62,564.42 904.68,564.48 904.68,564.48 C905.69,564.11 909.97,555.51 910.16,555.28 C910.56,554.79 910.96,554.69 911.24,554.68 C911.78,555.05 912.24,556.51 912.21,559.17 C912.21,559.41 912.22,559.65 912.25,559.88" fill="none" stroke="rgb(0, 0, 0)" stroke-width="8.00" stroke-opacity="1.00" stroke-linejoin="round"/>
<path d="M922.62,560.00 C922.62,560.00 922.62,560.06 922.62,560.06 C922.62,560.06 922.44,560.31 922.44,560.31 C921.49,560.73 918.54,561.76 917.91,562.26 C916.81,563.17 916.21,564.10 915.85,565.04 C915.80,565.16 915.69,565.43 915.50,565.87" fill="none" stroke="rgb(0, 0, 0)" stroke-width="8.00" stroke-opacity="1.00" stroke-linejoin="round"/>
<path d="M926.50,563.88 C926.50,563.88 926.44,563.88 926.44,563.88 C926.30,564.00 926.09,564.11 926.00,564.16 C923.58,565.55 921.07,567.56 920.78,568.03 C920.68,568.21 920.60,568.37 920.55,568.50 C920.52,568.58 920.47,568.78 920.38,569.09" fill="none" stroke="rgb(0, 0, 0)" stroke-width="8.00" stroke-opacity="1.00" stroke-linejoin="round"/>
<path d="M895.50,596.50 C895.50,596.50 895.50,596.38 895.50,596.38 C895.50,596.38 895.38,596.25 895.38,596.25 C895.14,596.22 894.16,597.95 893.00,601.46 C891.60,605.71 888.21,618.19 886.62,627.48 C884.83,638.00 882.51,645.31 881.00,647.96 C880.84,648.23 880.53,648.71 880.07,649.42" fill="none" stroke="rgb(0, 0, 0)" stroke-width="8.00" stroke-opacity="1.00" stroke-linejoin="round"/>
<path d="M888.50,577.25 C888.50,577.25 888.50,577.00 888.50,577.00 C884.43,584.38 871.47,611.80 865.76,621.94 C856.09,638.58 847.27,652.03 846.85,653.99 C846.60,655.35 847.82,659.28 849.01,661.14 C850.23,663.00 853.33,666.47 855.09,668.07 C856.97,669.72 858.66,670.51 859.62,670.62 C860.03,670.67 860.76,670.64 861.83,670.53" fill="none" stroke="rgb(0, 0, 0)" stroke-width="8.00" stroke-opacity="1.00" stroke-linejoin="round"/>
<path d="M927.00,614.25 C926.88,614.36 926.76,614.48 926.62,614.62 C924.24,617.26 922.11,619.46 918.61,622.89 C916.85,624.60 875.13,662.91 869.73,666.90 C864.34,670.83 858.19,671.64 857.20,671.56 C856.90,671.54 856.50,671.43 856.01,671.25" fill="none" stroke="rgb(0, 0, 0)" stroke-width="8.00" stroke-opacity="1.00" stroke-linejoin="round"/>
<path d="M898.25,596.75 C898.25,596.75 898.05,596.50 898.05,596.50 C901.62,597.60 909.32,602.36 913.50,606.26 C918.67,611.20 921.91,616.56 922.81,618.19 C922.90,618.35 922.96,618.45 923.00,618.49" fill="none" stroke="rgb(0, 0, 0)" stroke-width="8.00" stroke-opacity="1.00" stroke-linejoin="round"/>
<path d="M1006.00,555.00 C1005.61,555.45 1002.68,571.34 1001.65,575.40 C1000.82,578.54 998.83,583.38 997.60,585.19 C996.69,586.46 994.04,587.37 990.61,587.62 C990.18,587.65 938.89,586.26 938.81,586.06 C938.64,585.93 938.60,583.72 938.78,581.60 C938.85,580.75 939.33,578.18 939.50,577.25" fill="none" stroke="rgb(0, 0, 0)" stroke-width="8.00" stroke-opacity="1.00" stroke-linejoin="round"/>
<path d="M952.00,555.75 C951.81,555.74 951.34,555.99 951.12,556.10 C947.84,557.69 941.53,561.19 941.00,561.52 C940.63,561.75 939.88,562.24 938.75,563.00" fill="none" stroke="rgb(0, 0, 0)" stroke-width="8.00" stroke-opacity="1.00" stroke-linejoin="round"/>
<path d="M1004.23,564.62 C1004.35,564.56 1004.47,564.50 1004.56,564.44 C1004.66,564.38 1004.87,564.24 1005.21,564.03" fill="none" stroke="rgb(0, 0, 0)" stroke-width="8.00" stroke-opacity="1.00" stroke-linejoin="round"/>
<path d="M1002.50,554.75 C1002.73,554.71 1002.96,554.63 1003.20,554.52 C1006.10,553.25 1010.04,552.04 1011.22,551.92 C1017.16,551.34 1029.86,554.66 1032.81,556.02 C1033.15,556.18 1033.92,556.57 1035.14,557.19" fill="none" stroke="rgb(0, 0, 0)" stroke-width="8.00" stroke-opacity="1.00" stroke-linejoin="round"/>
<path d="M945.50,706.75 C945.51,706.87 946.00,707.85 946.44,708.56 C948.74,712.29 955.81,717.20 955.84,717.22 C954.88,718.80 942.52,730.36 938.07,735.18 C934.58,738.93 932.14,741.43 931.71,741.85 C931.57,741.99 931.43,742.11 931.28,742.23" fill="none" stroke="rgb(0, 0, 0)" stroke-width="8.00" stroke-opacity="1.00" stroke-linejoin="round"/>
<path d="M949.00,711.50 C948.71,712.30 948.14,713.53 947.50,714.58 C945.27,718.20 939.51,724.61 931.07,733.44 C927.00,737.74 924.32,741.13 924.15,743.15 C923.99,745.63 925.62,748.09 926.09,748.38 C926.18,748.42 926.30,748.46 926.47,748.49" fill="none" stroke="rgb(0, 0, 0)" stroke-width="8.00" stroke-opacity="1.00" stroke-linejoin="round"/>
<path d="M951.50,715.25 C951.29,715.26 949.73,715.23 949.05,715.49 C947.69,716.05 946.75,718.64 947.47,719.85 C948.23,721.00 951.21,720.52 952.35,719.10 C952.77,718.55 952.95,717.67 952.86,717.02 C952.80,716.67 952.39,716.11 951.88,715.59 C951.75,715.47 951.55,715.27 951.25,715.00" fill="none" stroke="rgb(0, 0, 0)" stroke-width="8.00" stroke-opacity="1.00" stroke-linejoin="round"/>
<path d="M939.75,715.50 C939.74,715.69 939.93,715.95 941.12,717.25 C943.80,720.14 947.31,722.87 949.48,724.28 C955.16,727.92 968.91,733.45 974.76,734.88 C980.28,736.19 992.71,737.10 998.51,736.97 C1002.19,736.87 1017.23,735.72 1019.65,735.31 C1019.75,735.29 1020.06,735.26 1019.96,735.25" fill="none" stroke="rgb(0, 0, 0)" stroke-width="8.00" stroke-opacity="1.00" stroke-linejoin="round"/>
<path d="M1028.19,621.37 C1027.92,628.37 1025.41,662.76 1024.58,676.39 C1024.36,681.84 1022.54,698.77 1022.17,703.33 C1021.69,709.28 1018.75,720.93 1018.75,723.06 C1018.75,723.31 1018.75,723.53 1018.75,723.69" fill="none" stroke="rgb(0, 0, 0)" stroke-width="8.00" stroke-opacity="1.00" stroke-linejoin="round"/>
<path d="M954.50,717.25 C954.50,717.25 954.35,717.25 954.35,717.25 C954.50,717.27 957.15,719.48 959.15,720.26 C963.41,721.87 985.05,726.21 987.04,726.56 C1001.77,729.10 1014.03,727.30 1014.45,727.12 C1014.71,727.00 1014.98,726.87 1015.25,726.75" fill="none" stroke="rgb(0, 0, 0)" stroke-width="8.00" stroke-opacity="1.00" stroke-linejoin="round"/>
<path d="M1012.25,727.25 C1012.25,727.25 1018.95,726.97 1018.95,726.97 C1019.36,727.80 1019.20,732.36 1018.95,735.07 C1018.88,735.80 1018.82,736.52 1018.75,737.25" fill="none" stroke="rgb(0, 0, 0)" stroke-width="8.00" stroke-opacity="1.00" stroke-linejoin="round"/>
<path d="M1020.00,717.25 C1019.76,717.93 1019.09,719.93 1018.91,720.62 C1018.76,721.20 1018.53,723.34 1018.50,723.95 C1018.49,724.17 1018.49,724.65 1018.50,725.38 C1018.50,725.53 1018.50,725.65 1018.50,725.75" fill="none" stroke="rgb(0, 0, 0)" stroke-width="8.00" stroke-opacity="1.00" stroke-linejoin="round"/>
<path d="M930.25,603.50 C930.25,603.50 930.25,603.38 930.25,603.38 C929.43,606.87 927.80,618.32 925.47,626.89 C924.28,631.51 924.30,636.68 925.46,639.71 C925.93,640.89 935.29,656.85 936.61,661.71 C938.77,669.94 940.63,673.34 940.94,673.85 C941.04,674.03 941.14,674.24 941.24,674.46" fill="none" stroke="rgb(0, 0, 0)" stroke-width="8.00" stroke-opacity="1.00" stroke-linejoin="round"/>
<path d="M939.00,669.25 C939.00,669.25 938.75,668.77 938.75,668.77 C939.61,669.94 943.96,685.03 944.79,689.81 C946.20,698.12 945.40,703.40 944.56,707.30 C944.45,707.78 944.35,708.27 944.25,708.75" fill="none" stroke="rgb(0, 0, 0)" stroke-width="8.00" stroke-opacity="1.00" stroke-linejoin="round"/>
<path d="M944.75,706.50 C944.75,706.50 944.65,706.50 944.65,706.50 C944.41,706.77 941.41,709.59 940.18,711.88 C939.80,712.61 939.07,714.57 939.06,714.88 C939.06,715.02 939.12,715.23 939.25,715.50" fill="none" stroke="rgb(0, 0, 0)" stroke-width="8.00" stroke-opacity="1.00" stroke-linejoin="round"/>
<path d="M964.88,722.00 C964.88,722.06 964.84,722.42 964.71,722.79 C963.61,725.65 962.24,729.30 962.28,730.25" fill="none" stroke="rgb(0, 0, 0)" stroke-width="8.00" stroke-opacity="1.00" stroke-linejoin="round"/>
<path d="M964.38,724.25 C964.40,723.23 967.18,721.95 967.78,722.91 C967.98,723.31 967.67,726.09 966.54,729.45 C965.83,731.53 965.17,732.04 964.55,731.95 C964.33,731.92 964.08,731.86 963.82,731.78 C963.69,731.74 963.42,731.65 963.00,731.50" fill="none" stroke="rgb(0, 0, 0)" stroke-width="8.00" stroke-opacity="1.00" stroke-linejoin="round"/>
<path d="M985.25,726.50 C985.25,726.50 985.35,726.50 985.35,726.50 C985.10,727.07 984.30,731.98 984.12,734.09 C984.05,735.01 984.05,735.39 984.12,736.26 C984.13,736.35 984.13,736.38 984.12,736.38" fill="none" stroke="rgb(0, 0, 0)" stroke-width="8.00" stroke-opacity="1.00" stroke-linejoin="round"/>
<path d="M985.12,727.00 C985.15,726.84 985.40,726.67 986.12,726.35 C986.70,726.11 988.34,726.23 988.76,726.52 C989.49,727.08 990.03,728.60 990.10,730.69 C990.14,732.22 989.40,737.15 989.07,737.69 C988.36,737.69 986.48,737.24 985.78,737.17 C985.62,737.15 985.40,737.14 985.12,737.12" fill="none" stroke="rgb(0, 0, 0)" stroke-width="8.00" stroke-opacity="1.00" stroke-linejoin="round"/>
<path d="M1005.38,728.75 C1005.38,728.75 1004.88,728.15 1004.88,728.15 C1004.88,728.15 1004.39,736.96 1004.39,736.96" fill="none" stroke="rgb(0, 0, 0)" stroke-width="8.00" stroke-opacity="1.00" stroke-linejoin="round"/>
<path d="M1004.38,728.75 C1004.35,728.64 1004.43,728.42 1004.61,728.20 C1004.80,727.97 1006.50,727.25 1007.51,727.42 C1008.03,727.52 1008.80,728.41 1008.91,729.39 C1008.96,729.93 1008.61,736.02 1008.55,736.35 C1008.38,737.20 1006.41,737.64 1005.56,737.61" fill="none" stroke="rgb(0, 0, 0)" stroke-width="8.00" stroke-opacity="1.00" stroke-linejoin="round"/>
<path d="M1019.00,722.50 C1019.00,722.50 1019.00,722.38 1019.00,722.38 C1018.72,723.29 1018.47,724.34 1018.35,725.24 C1018.20,726.44 1018.97,728.46 1019.06,729.39 C1019.06,729.50 1018.03,737.98 1017.60,738.85" fill="none" stroke="rgb(0, 0, 0)" stroke-width="8.00" stroke-opacity="1.00" stroke-linejoin="round"/>
<path d="M881.00,778.50 C881.13,778.56 880.26,777.26 879.90,776.70 C878.54,774.54 869.54,754.89 867.58,751.62 C867.28,751.11 866.82,750.45 866.21,749.62 C865.81,749.08 865.40,748.54 865.00,748.00" fill="none" stroke="rgb(0, 0, 0)" stroke-width="8.00" stroke-opacity="1.00" stroke-linejoin="round"/>
<path d="M1017.00,736.00 C1017.04,735.93 1014.26,753.83 1012.52,759.77 C1011.56,762.97 998.70,780.09 996.92,784.17 C995.00,788.61 992.88,795.79 992.25,797.50 C991.38,799.85 987.23,808.97 985.39,811.63 C984.74,812.55 979.99,818.01 978.03,819.73 C976.12,821.37 970.53,824.70 967.98,825.14 C959.42,826.59 949.46,829.29 939.30,831.65 C932.02,833.32 917.28,836.84 910.39,839.07 C901.32,842.16 894.23,845.06 883.97,849.88 C872.03,855.58 869.17,856.81 858.85,860.34 C836.57,868.19 819.69,872.39 818.57,873.01 C817.27,873.77 814.90,877.41 813.49,880.55 C813.48,880.57 809.52,889.25 807.55,891.33 C805.63,893.31 801.53,897.03 801.02,897.79 C801.02,897.79 801.50,899.00 801.50,899.00" fill="none" stroke="rgb(0, 0, 0)" stroke-width="8.00" stroke-opacity="1.00" stroke-linejoin="round"/>
<path d="M804.00,893.00 C803.51,894.10 803.07,894.77 799.76,898.77 C791.35,908.41 770.26,933.55 763.71,942.33 C757.29,951.30 745.50,969.80 744.71,971.04 C743.99,972.16 743.28,973.29 742.56,974.41" fill="none" stroke="rgb(0, 0, 0)" stroke-width="8.00" stroke-opacity="1.00" stroke-linejoin="round"/>
<path d="M795.00,915.00 C795.00,915.00 794.91,914.59 794.91,914.59 C792.13,917.71 782.42,932.91 778.38,939.42 C774.85,945.35 768.48,956.25 764.12,964.87 C759.38,974.59 756.12,981.97 752.50,990.96 C752.11,991.97 751.29,994.21 751.04,994.90" fill="none" stroke="rgb(0, 0, 0)" stroke-width="8.00" stroke-opacity="1.00" stroke-linejoin="round"/>
<path d="M802.00,895.50 C802.00,895.50 802.50,895.50 802.50,895.50 C801.97,902.41 799.97,909.81 795.98,922.11 C794.91,925.41 792.78,932.08 792.75,932.71 C792.73,933.31 792.76,939.16 791.52,943.29 C790.46,946.73 776.99,980.85 772.23,993.45 C768.28,1003.20 754.48,1033.77 750.33,1040.51 C749.37,1042.04 745.89,1046.41 744.65,1047.95 C744.43,1047.94 730.59,1040.80 724.97,1039.21 C718.74,1037.47 709.38,1036.94 698.21,1037.38 C696.44,1037.43 694.18,1037.45 693.58,1037.38 C693.30,1037.34 692.63,1037.22 691.55,1037.01" fill="none" stroke="rgb(0, 0, 0)" stroke-width="8.00" stroke-opacity="1.00" stroke-linejoin="round"/>
<path d="M915.00,754.00 C914.97,754.16 913.73,754.54 913.25,754.75 C907.92,757.15 879.12,778.28 872.02,782.50 C859.00,789.70 830.37,806.21 820.90,812.23 C807.73,821.01 789.34,835.83 778.25,844.50 C774.45,847.65 769.70,852.16 767.71,854.07 C765.90,855.88 762.69,860.52 760.93,863.99 C757.39,871.08 752.15,897.04 746.50,917.29 C745.69,920.13 743.51,927.46 742.50,929.99 C740.96,933.71 738.59,936.73 734.03,941.11 C732.20,942.89 728.04,947.90 726.88,950.00 C725.62,952.31 722.77,959.62 722.20,963.48 C721.19,970.74 720.17,986.28 719.02,990.88 C717.66,996.16 710.78,1006.08 706.60,1014.96 C703.90,1020.69 701.84,1024.47 700.07,1026.42 C694.69,1032.29 693.20,1034.37 692.29,1035.82 C692.29,1035.82 693.00,1036.00 693.00,1036.00" fill="none" stroke="rgb(0, 0, 0)" stroke-width="8.00" stroke-opacity="1.00" stroke-linejoin="round"/>
<path d="M705.38,1020.75 C705.44,1020.74 705.82,1020.78 706.14,1020.81 C707.52,1020.93 713.02,1020.99 716.63,1021.38 C719.60,1021.71 736.66,1025.21 742.44,1026.41 C749.46,1027.97 753.57,1030.11 754.42,1030.92" fill="none" stroke="rgb(0, 0, 0)" stroke-width="8.00" stroke-opacity="1.00" stroke-linejoin="round"/>
<path d="M693.38,1034.50 C693.38,1034.50 693.38,1034.44 693.38,1034.44 C693.38,1034.44 692.55,1035.84 692.55,1035.84 C692.81,1036.32 693.26,1036.72 694.14,1036.95 C694.48,1037.03 695.35,1037.22 696.75,1037.50" fill="none" stroke="rgb(0, 0, 0)" stroke-width="8.00" stroke-opacity="1.00" stroke-linejoin="round"/>
<path d="M875.00,778.75 C874.73,778.74 874.47,778.67 874.21,778.54 C869.61,776.21 860.65,770.65 852.60,766.03 C840.54,759.84 822.67,750.49 807.39,740.74 C801.29,736.98 790.05,730.54 785.35,726.67 C784.52,725.97 783.68,725.27 782.84,724.57" fill="none" stroke="rgb(0, 0, 0)" stroke-width="8.00" stroke-opacity="1.00" stroke-linejoin="round"/>
<path d="M782.50,731.75 C782.55,731.82 783.71,732.64 785.98,734.19 C790.02,736.93 795.66,740.29 798.38,741.53 C801.59,742.96 807.69,744.50 810.25,744.83 C810.70,744.89 811.66,745.02 813.13,745.23" fill="none" stroke="rgb(0, 0, 0)" stroke-width="8.00" stroke-opacity="1.00" stroke-linejoin="round"/>
<path d="M810.50,743.25 C810.93,743.90 811.05,744.29 811.00,745.00 C810.90,746.14 808.39,752.26 808.02,753.32 C807.75,754.09 807.64,758.08 808.98,760.75 C810.43,763.17 812.88,767.57 813.15,770.07 C813.33,771.88 812.50,781.58 812.50,784.46 C812.52,789.13 815.45,801.41 815.65,807.21 C815.76,811.16 815.59,813.67 815.56,813.92 C815.55,814.03 815.53,814.31 815.50,814.75" fill="none" stroke="rgb(0, 0, 0)" stroke-width="8.00" stroke-opacity="1.00" stroke-linejoin="round"/>
<path d="M940.00,713.75 C940.00,713.75 940.00,713.62 940.00,713.62 C939.90,713.50 923.73,721.38 920.06,724.02 C919.15,724.68 913.56,729.41 912.00,730.98 C911.84,731.14 911.68,731.31 911.50,731.50" fill="none" stroke="rgb(0, 0, 0)" stroke-width="8.00" stroke-opacity="1.00" stroke-linejoin="round"/>
<path d="M924.75,721.00 C924.24,721.02 923.88,721.02 923.67,721.00 C922.16,720.84 918.44,718.68 917.61,719.01 C914.77,720.15 890.24,737.23 889.85,737.48 C889.65,737.61 889.37,737.78 889.00,738.00" fill="none" stroke="rgb(0, 0, 0)" stroke-width="8.00" stroke-opacity="1.00" stroke-linejoin="round"/>
<path d="M917.00,719.25 C916.55,718.89 916.27,718.66 916.17,718.56 C914.78,717.32 904.68,713.18 898.06,709.69 C894.21,707.68 890.16,706.51 885.57,705.72 C877.80,704.40 860.58,699.17 859.03,698.75 C849.73,696.21 811.84,687.25 800.37,685.67 C793.11,684.73 779.79,684.73 774.21,685.03 C769.89,685.30 765.55,686.38 763.60,687.27 C761.60,688.24 758.02,691.45 756.58,694.33 C755.40,696.80 754.23,703.48 754.10,706.31 C753.97,710.20 754.93,720.41 756.12,728.46 C756.99,733.99 759.96,749.76 760.58,753.79 C761.22,758.04 762.77,773.12 763.72,780.41 C765.04,789.36 767.19,799.82 768.55,804.58 C771.44,814.70 772.16,818.86 773.38,830.55 C774.57,842.03 775.58,845.56 776.02,846.23 C776.26,846.57 776.51,846.91 776.75,847.25" fill="none" stroke="rgb(0, 0, 0)" stroke-width="8.00" stroke-opacity="1.00" stroke-linejoin="round"/>
<path d="M803.75,752.50 C803.77,752.46 803.76,752.58 803.75,752.62 C803.21,754.77 801.81,760.86 798.94,770.42 C793.35,788.38 785.50,816.45 785.58,819.33 C785.59,819.60 785.65,820.24 785.75,821.25" fill="none" stroke="rgb(0, 0, 0)" stroke-width="8.00" stroke-opacity="1.00" stroke-linejoin="round"/>
<path d="M804.00,769.25 C804.00,769.25 803.94,768.81 803.94,768.81 C802.32,774.43 798.77,787.50 796.83,794.97 C793.65,807.92 792.02,824.71 791.98,827.90 C791.97,828.43 791.98,829.29 792.00,830.48" fill="none" stroke="rgb(0, 0, 0)" stroke-width="8.00" stroke-opacity="1.00" stroke-linejoin="round"/>
<path d="M725.25,1040.00 C725.25,1040.13 725.25,1040.30 725.25,1040.52 C725.31,1043.28 726.33,1046.52 727.75,1048.12 C728.11,1048.52 732.15,1052.13 732.57,1052.98 C733.84,1055.73 732.87,1064.73 732.85,1065.59 C732.80,1066.70 732.58,1069.58 731.67,1070.43 C728.41,1073.35 716.60,1081.66 709.01,1087.83 C693.97,1100.19 678.46,1111.72 676.62,1113.00 C674.13,1114.71 668.43,1116.16 665.44,1115.88 C662.67,1115.59 657.57,1113.95 656.69,1112.92 C656.51,1112.70 656.20,1112.23 655.75,1111.50" fill="none" stroke="rgb(0, 0, 0)" stroke-width="8.00" stroke-opacity="1.00" stroke-linejoin="round"/>
<path d="M695.75,1038.25 C695.75,1038.25 695.75,1038.12 695.75,1038.12 C695.75,1038.12 696.00,1037.88 696.00,1037.88 C694.89,1040.08 692.53,1044.87 691.27,1047.44 C687.04,1055.59 669.74,1085.80 664.48,1092.40 C662.49,1094.85 656.46,1099.39 655.52,1100.08 C652.80,1102.09 651.18,1105.13 651.19,1106.24 C651.28,1107.36 653.25,1110.36 654.56,1111.31 C656.39,1112.58 662.38,1114.38 663.49,1114.74 C663.97,1114.89 664.71,1115.14 665.70,1115.48" fill="none" stroke="rgb(0, 0, 0)" stroke-width="8.00" stroke-opacity="1.00" stroke-linejoin="round"/>
<path d="M825.00,871.50 C825.00,871.50 825.00,871.02 825.00,871.02 C826.63,872.21 832.52,874.66 832.62,875.13 C832.87,877.17 829.29,892.33 826.13,900.64 C823.95,906.28 820.57,919.14 819.33,924.90 C817.92,930.48 815.16,942.18 812.88,948.10 C811.98,950.40 809.56,955.29 808.81,956.25 C806.99,958.56 800.53,963.13 800.46,963.17 C800.37,963.21 800.21,963.24 800.00,963.25" fill="none" stroke="rgb(0, 0, 0)" stroke-width="8.00" stroke-opacity="1.00" stroke-linejoin="round"/>
<path d="M792.75,933.00 C792.74,932.94 792.88,933.14 793.89,935.14 C795.17,937.73 795.73,940.44 795.81,943.17 C795.85,945.72 794.78,951.54 793.85,954.61 C792.60,958.70 792.19,960.59 792.71,962.42 C793.11,963.65 795.25,964.67 796.52,964.67 C800.49,964.60 803.65,962.08 804.73,961.06 C804.97,960.84 805.22,960.56 805.50,960.25" fill="none" stroke="rgb(0, 0, 0)" stroke-width="8.00" stroke-opacity="1.00" stroke-linejoin="round"/>
<path d="M969.00,733.50 C969.00,733.50 968.50,733.50 968.50,733.50 C967.29,735.04 965.52,739.41 964.83,743.15 C964.25,746.49 965.04,751.71 965.88,753.92 C966.78,756.21 969.50,760.07 972.48,761.96 C974.72,763.36 976.49,764.29 977.99,764.88 C978.74,765.18 981.55,766.10 982.04,766.25 C982.30,766.32 982.62,766.41 983.00,766.50" fill="none" stroke="rgb(0, 0, 0)" stroke-width="8.00" stroke-opacity="1.00" stroke-linejoin="round"/>
<path d="M991.25,738.25 C991.24,738.43 990.96,739.21 990.14,741.19 C988.67,744.76 978.79,765.13 978.75,765.62" fill="none" stroke="rgb(0, 0, 0)" stroke-width="8.00" stroke-opacity="1.00" stroke-linejoin="round"/>
<path d="M964.75,732.00 C964.75,732.00 964.50,731.75 964.50,731.75 C964.13,731.83 963.34,732.60 962.76,733.63 C961.78,735.40 960.80,740.50 960.64,744.64 C960.58,746.55 961.13,752.83 962.02,755.33 C963.19,758.52 966.00,762.89 968.23,764.69 C970.54,766.51 978.54,769.38 979.25,769.60 C979.58,769.70 980.07,769.84 980.73,770.00" fill="none" stroke="rgb(0, 0, 0)" stroke-width="8.00" stroke-opacity="1.00" stroke-linejoin="round"/>
<path d="M994.75,738.50 C994.58,740.23 990.40,752.46 986.90,759.96 C983.60,766.81 981.42,768.91 980.97,770.36" fill="none" stroke="rgb(0, 0, 0)" stroke-width="8.00" stroke-opacity="1.00" stroke-linejoin="round"/>
<path d="M940.50,717.25 C940.37,717.45 929.47,726.01 925.17,727.58 C922.36,728.59 920.16,728.35 919.75,728.06 C919.68,728.00 919.60,727.90 919.50,727.75" fill="none" stroke="rgb(0, 0, 0)" stroke-width="8.00" stroke-opacity="1.00" stroke-linejoin="round"/>
<path d="M938.00,715.50 C937.74,715.67 932.53,720.37 929.62,722.32 C925.23,725.21 920.62,725.57 918.99,725.51 C918.75,725.49 918.50,725.49 918.25,725.50" fill="none" stroke="rgb(0, 0, 0)" stroke-width="8.00" stroke-opacity="1.00" stroke-linejoin="round"/>
<path d="M917.50,727.00 C917.50,727.00 917.25,727.35 917.25,727.35 C917.46,727.58 917.57,727.65 917.98,727.73 C919.22,727.93 920.50,728.00 922.79,728.00 C923.53,728.00 924.26,728.00 924.99,728.00" fill="none" stroke="rgb(0, 0, 0)" stroke-width="8.00" stroke-opacity="1.00" stroke-linejoin="round"/>
<path d="M938.75,715.00 C939.00,714.97 939.44,715.08 939.89,715.40 C940.07,715.53 940.50,715.87 941.17,716.42" fill="none" stroke="rgb(0, 0, 0)" stroke-width="8.00" stroke-opacity="1.00" stroke-linejoin="round"/>
<path d="M1003.88,562.50 C1003.84,562.56 1002.93,563.29 1002.24,563.66 C998.29,565.79 983.08,570.54 980.07,572.40 C978.33,573.50 975.31,577.28 974.66,577.83 C974.55,577.92 974.38,578.06 974.14,578.24" fill="none" stroke="rgb(0, 0, 0)" stroke-width="8.00" stroke-opacity="1.00" stroke-linejoin="round"/>
<path d="M962.12,579.25 C961.96,579.25 961.67,579.24 961.57,579.22 C961.06,579.08 958.16,576.21 957.73,575.81 C955.95,574.24 948.49,572.19 948.02,572.06 C946.13,571.52 943.91,570.60 942.94,569.98 C942.76,569.86 942.50,569.67 942.15,569.40" fill="none" stroke="rgb(0, 0, 0)" stroke-width="8.00" stroke-opacity="1.00" stroke-linejoin="round"/>
<path d="M1000.00,553.25 C1000.00,553.25 999.78,553.28 999.78,553.28 C1002.04,554.63 1006.85,553.54 1007.19,553.50 C1007.30,553.89 1005.63,558.21 1004.76,562.58 C1003.02,571.42 998.29,584.33 998.15,585.00 C998.11,585.17 998.10,585.38 998.12,585.62" fill="none" stroke="rgb(0, 0, 0)" stroke-width="8.00" stroke-opacity="1.00" stroke-linejoin="round"/>
<path d="M941.00,564.50 C941.00,564.50 940.69,563.91 940.69,563.91 C940.69,563.91 939.30,570.30 939.30,570.30" fill="none" stroke="rgb(0, 0, 0)" stroke-width="8.00" stroke-opacity="1.00" stroke-linejoin="round"/>
<path d="M939.50,577.25 C939.50,577.25 938.99,576.66 938.99,576.66 C938.40,577.12 938.45,584.14 939.89,584.75 C939.99,584.79 940.19,584.83 940.50,584.88" fill="none" stroke="rgb(0, 0, 0)" stroke-width="8.00" stroke-opacity="1.00" stroke-linejoin="round"/>
<path d="M930.75,597.00 C930.75,597.00 930.70,596.55 930.70,596.55 C929.75,602.17 927.35,614.01 925.89,620.23 C924.87,625.13 924.34,634.67 925.21,638.94 C925.31,639.44 925.49,640.13 925.75,641.00" fill="none" stroke="rgb(0, 0, 0)" stroke-width="8.00" stroke-opacity="1.00" stroke-linejoin="round"/>
<path d="M928.00,614.00 C928.00,614.00 928.00,614.25 928.00,614.25 C927.68,614.40 924.15,617.70 922.41,619.22 C922.35,619.27 921.93,619.72 921.16,620.55 C920.97,620.76 920.67,621.07 920.25,621.50" fill="none" stroke="rgb(0, 0, 0)" stroke-width="8.00" stroke-opacity="1.00" stroke-linejoin="round"/>
<path d="M1065.00,545.25 C1065.01,545.51 1065.01,545.72 1065.00,545.89 C1064.66,554.73 1069.18,577.90 1071.05,583.52 C1072.12,586.70 1077.62,599.72 1078.28,603.21" fill="none" stroke="rgb(0, 0, 0)" stroke-width="8.00" stroke-opacity="1.00" stroke-linejoin="round"/>
<path d="M1047.63,549.51 C1047.63,549.51 1047.42,548.18 1047.42,548.18" fill="none" stroke="rgb(0, 0, 0)" stroke-width="8.00" stroke-opacity="1.00" stroke-linejoin="round"/>
<path d="M1047.73,551.67 C1049.36,571.75 1048.87,581.95 1047.77,591.44 C1047.01,598.89 1048.75,605.87 1049.33,607.50 C1049.48,607.91 1049.70,608.40 1049.98,608.96" fill="none" stroke="rgb(0, 0, 0)" stroke-width="8.00" stroke-opacity="1.00" stroke-linejoin="round"/>
<path d="M1048.50,599.50 C1047.72,599.48 1046.26,600.16 1045.26,601.28 C1043.41,603.38 1040.95,608.58 1040.81,609.10 C1040.75,609.32 1040.73,609.61 1040.75,609.99" fill="none" stroke="rgb(0, 0, 0)" stroke-width="8.00" stroke-opacity="1.00" stroke-linejoin="round"/>
<path d="M1063.88,548.75 C1063.88,548.75 1063.75,548.75 1063.75,548.75 C1063.87,548.42 1064.31,547.49 1064.83,546.63 C1066.48,543.86 1069.54,539.73 1071.02,538.22 C1072.96,536.26 1078.26,531.42 1078.89,530.73 C1081.34,527.93 1086.39,515.16 1086.60,514.36 C1086.65,514.15 1085.87,512.54 1085.25,511.15" fill="none" stroke="rgb(0, 0, 0)" stroke-width="8.00" stroke-opacity="1.00" stroke-linejoin="round"/>
<path d="M1082.56,505.69 C1082.56,505.69 1080.14,502.49 1080.14,502.49" fill="none" stroke="rgb(0, 0, 0)" stroke-width="8.00" stroke-opacity="1.00" stroke-linejoin="round"/>
<path d="M1080.89,501.81 C1080.08,499.70 1077.66,497.00 1076.08,497.92 C1075.26,498.44 1074.37,499.77 1074.22,500.78 C1073.97,502.61 1075.72,505.70 1075.78,505.76 C1075.78,505.76 1076.59,507.43 1076.59,507.43" fill="none" stroke="rgb(0, 0, 0)" stroke-width="8.00" stroke-opacity="1.00" stroke-linejoin="round"/>
<path d="M1083.00,522.50 C1083.00,522.50 1083.01,521.36 1082.96,520.99 C1082.60,518.33 1080.98,515.79 1080.60,515.30" fill="none" stroke="rgb(0, 0, 0)" stroke-width="8.00" stroke-opacity="1.00" stroke-linejoin="round"/>
<path d="M1078.40,512.96 C1078.40,512.96 1077.40,511.10 1077.40,511.10" fill="none" stroke="rgb(0, 0, 0)" stroke-width="8.00" stroke-opacity="1.00" stroke-linejoin="round"/>
<path d="M1073.88,518.61 C1073.88,518.61 1075.40,519.14 1075.40,519.14" fill="none" stroke="rgb(0, 0, 0)" stroke-width="8.00" stroke-opacity="1.00" stroke-linejoin="round"/>
<path d="M1075.79,520.49 C1075.81,520.53 1075.97,521.08 1076.03,521.30 C1076.06,521.41 1076.09,521.52 1076.12,521.62" fill="none" stroke="rgb(0, 0, 0)" stroke-width="8.00" stroke-opacity="1.00" stroke-linejoin="round"/>
<path d="M1076.75,522.38 C1076.62,522.38 1076.52,522.38 1076.46,522.38 C1075.86,522.24 1072.99,519.33 1072.84,519.19" fill="none" stroke="rgb(0, 0, 0)" stroke-width="8.00" stroke-opacity="1.00" stroke-linejoin="round"/>
<path d="M1070.18,516.47 C1070.18,516.47 1067.67,514.66 1067.67,514.66" fill="none" stroke="rgb(0, 0, 0)" stroke-width="8.00" stroke-opacity="1.00" stroke-linejoin="round"/>
<path d="M1066.86,514.04 C1066.86,514.04 1064.78,512.96 1064.78,512.96" fill="none" stroke="rgb(0, 0, 0)" stroke-width="8.00" stroke-opacity="1.00" stroke-linejoin="round"/>
<path d="M1064.98,512.83 C1064.85,512.76 1061.34,511.50 1059.34,511.91 C1058.46,512.11 1057.33,513.13 1057.43,513.72 C1057.82,515.62 1067.01,525.38 1068.61,528.65 C1068.66,528.75 1068.71,528.82 1068.74,528.87" fill="none" stroke="rgb(0, 0, 0)" stroke-width="8.00" stroke-opacity="1.00" stroke-linejoin="round"/>
<path d="M1065.09,525.80 C1065.09,525.80 1065.00,525.67 1065.00,525.67" fill="none" stroke="rgb(0, 0, 0)" stroke-width="8.00" stroke-opacity="1.00" stroke-linejoin="round"/>
<path d="M1061.16,533.29 C1061.16,533.29 1062.71,533.93 1062.71,533.93" fill="none" stroke="rgb(0, 0, 0)" stroke-width="8.00" stroke-opacity="1.00" stroke-linejoin="round"/>
<path d="M1052.07,528.37 C1052.07,528.37 1048.49,534.06 1048.49,534.06 C1048.49,534.06 1047.17,535.88 1047.17,535.88" fill="none" stroke="rgb(0, 0, 0)" stroke-width="8.00" stroke-opacity="1.00" stroke-linejoin="round"/>
<path d="M1046.95,543.00 C1046.95,543.00 1046.40,546.32 1046.40,546.32" fill="none" stroke="rgb(0, 0, 0)" stroke-width="8.00" stroke-opacity="1.00" stroke-linejoin="round"/>
<path d="M1047.03,548.74 C1047.03,548.74 1047.36,550.61 1047.36,550.61" fill="none" stroke="rgb(0, 0, 0)" stroke-width="8.00" stroke-opacity="1.00" stroke-linejoin="round"/>
<path d="M1047.28,549.41 C1047.28,549.41 1047.81,553.95 1047.81,553.95 C1047.81,553.95 1047.88,555.44 1047.88,555.44" fill="none" stroke="rgb(0, 0, 0)" stroke-width="8.00" stroke-opacity="1.00" stroke-linejoin="round"/>
<path d="M1062.43,533.02 C1062.43,533.02 1054.26,539.97 1054.26,539.97" fill="none" stroke="rgb(0, 0, 0)" stroke-width="8.00" stroke-opacity="1.00" stroke-linejoin="round"/>
<path d="M1061.94,522.49 C1061.94,522.49 1061.86,522.09 1061.86,522.09" fill="none" stroke="rgb(0, 0, 0)" stroke-width="8.00" stroke-opacity="1.00" stroke-linejoin="round"/>
<path d="M1060.04,520.41 C1060.04,520.41 1059.95,520.20 1059.95,520.20" fill="none" stroke="rgb(0, 0, 0)" stroke-width="8.00" stroke-opacity="1.00" stroke-linejoin="round"/>
<path d="M1054.01,518.41 C1053.42,518.01 1053.07,520.86 1053.98,522.24 C1054.67,523.25 1056.02,524.79 1056.40,525.19" fill="none" stroke="rgb(0, 0, 0)" stroke-width="8.00" stroke-opacity="1.00" stroke-linejoin="round"/>
<path d="M1060.38,529.70 C1061.04,530.59 1061.81,532.16 1062.08,533.00 C1062.12,533.14 1062.16,533.27 1062.18,533.40" fill="none" stroke="rgb(0, 0, 0)" stroke-width="8.00" stroke-opacity="1.00" stroke-linejoin="round"/>
<path d="M1081.50,516.25 C1081.32,516.16 1080.46,515.64 1080.00,515.33 C1078.89,514.56 1075.10,511.00 1073.14,509.18 C1072.57,508.64 1068.87,504.93 1067.68,504.81 C1066.12,504.69 1064.20,504.80 1063.86,504.96" fill="none" stroke="rgb(0, 0, 0)" stroke-width="8.00" stroke-opacity="1.00" stroke-linejoin="round"/>
<path d="M1070.76,517.04 C1071.79,518.14 1076.54,521.08 1076.57,521.11 C1076.59,521.13 1076.68,521.24 1076.84,521.45" fill="none" stroke="rgb(0, 0, 0)" stroke-width="8.00" stroke-opacity="1.00" stroke-linejoin="round"/>
<path d="M1065.93,513.08 C1065.93,513.08 1064.34,511.70 1064.34,511.70" fill="none" stroke="rgb(0, 0, 0)" stroke-width="8.00" stroke-opacity="1.00" stroke-linejoin="round"/>
<path d="M1068.36,515.45 C1069.77,516.61 1074.09,520.19 1074.57,520.65 C1074.66,520.72 1074.79,520.79 1074.98,520.87" fill="none" stroke="rgb(0, 0, 0)" stroke-width="8.00" stroke-opacity="1.00" stroke-linejoin="round"/>
<path d="M1068.38,526.50 C1068.38,526.50 1069.22,527.23 1069.22,527.23 C1069.16,526.64 1068.43,527.04 1069.39,527.05 C1069.59,527.05 1070.09,527.03 1070.88,527.00" fill="none" stroke="rgb(0, 0, 0)" stroke-width="8.00" stroke-opacity="1.00" stroke-linejoin="round"/>
<path d="M1028.40,608.12 C1028.19,615.85 1027.91,627.86 1028.04,629.28 C1028.07,629.54 1028.14,630.07 1028.25,630.87" fill="none" stroke="rgb(0, 0, 0)" stroke-width="8.00" stroke-opacity="1.00" stroke-linejoin="round"/>
<path d="M1029.57,605.98 C1029.57,605.98 1031.41,605.48 1031.41,605.48" fill="none" stroke="rgb(0, 0, 0)" stroke-width="8.00" stroke-opacity="1.00" stroke-linejoin="round"/>
<path d="M1031.75,555.50 C1031.75,555.50 1030.54,555.62 1030.54,555.62 C1032.00,555.95 1044.30,565.78 1045.62,566.79 C1046.26,567.26 1047.10,567.87 1047.52,568.24" fill="none" stroke="rgb(0, 0, 0)" stroke-width="8.00" stroke-opacity="1.00" stroke-linejoin="round"/>
<path d="M1078.25,602.88 C1078.22,603.05 1078.55,607.11 1078.44,609.16 C1078.38,610.06 1077.44,613.99 1075.80,616.96 C1074.67,618.99 1070.44,625.04 1067.83,628.46 C1065.49,631.46 1063.82,632.89 1062.77,633.15 C1061.19,633.49 1053.07,629.05 1047.01,624.41 C1039.09,618.32 1029.88,606.77 1029.00,605.19 C1028.94,605.07 1028.86,604.93 1028.76,604.77" fill="none" stroke="rgb(0, 0, 0)" stroke-width="8.00" stroke-opacity="1.00" stroke-linejoin="round"/>
<path d="M959.88,545.00 C959.88,545.00 960.12,544.69 960.12,544.69 C960.12,544.69 953.34,554.01 953.34,554.01 C953.34,554.01 956.61,546.67 956.61,546.67 C956.61,546.67 953.70,551.08 953.70,551.08 C953.70,551.08 954.84,546.24 954.84,546.24 C954.84,546.24 951.92,550.06 951.92,550.06 C951.92,550.06 952.47,547.27 952.47,547.27 C952.47,547.27 951.34,548.74 951.34,548.74 C951.34,548.74 948.56,546.00 948.56,546.00 C948.56,546.00 951.60,550.93 951.60,550.93 C951.60,550.93 947.91,547.19 947.91,547.19 C949.26,548.91 951.93,555.15 952.42,556.46 C952.49,556.66 952.52,556.76 952.50,556.75" fill="none" stroke="rgb(0, 0, 0)" stroke-width="8.00" stroke-opacity="1.00" stroke-linejoin="round"/>
<path d="M939.88,542.12 C940.01,542.17 940.21,542.24 940.32,542.25 C940.75,542.27 941.47,542.31 941.92,542.42 C942.08,542.46 942.52,542.57 943.23,542.74" fill="none" stroke="rgb(0, 0, 0)" stroke-width="8.00" stroke-opacity="1.00" stroke-linejoin="round"/>
<path d="M961.12,494.38 C961.12,494.38 961.12,494.31 961.12,494.31 C961.09,494.23 960.50,493.88 960.02,493.72 C958.97,493.38 957.78,493.68 957.59,493.82 C957.53,493.87 957.38,494.01 957.14,494.23" fill="none" stroke="rgb(0, 0, 0)" stroke-width="8.00" stroke-opacity="1.00" stroke-linejoin="round"/>
<path d="M959.38,496.50 C959.38,496.50 959.31,496.56 959.31,496.56 C959.31,496.56 959.25,496.56 959.25,496.56 C959.22,496.53 958.09,496.40 957.80,496.38 C957.33,496.34 956.42,496.45 955.99,496.57 C955.88,496.61 955.77,496.66 955.66,496.73" fill="none" stroke="rgb(0, 0, 0)" stroke-width="8.00" stroke-opacity="1.00" stroke-linejoin="round"/>
<path d="M955.50,499.88 C955.40,499.79 955.33,499.71 955.28,499.65 C955.12,499.46 954.56,498.78 953.99,498.21 C953.89,498.11 953.78,498.01 953.67,497.91" fill="none" stroke="rgb(0, 0, 0)" stroke-width="8.00" stroke-opacity="1.00" stroke-linejoin="round"/>
<path d="M919.62,519.25 C919.63,519.19 919.63,519.10 919.62,519.00 C919.62,518.39 919.73,517.47 919.92,516.99 C919.99,516.82 920.13,516.55 920.36,516.18" fill="none" stroke="rgb(0, 0, 0)" stroke-width="8.00" stroke-opacity="1.00" stroke-linejoin="round"/>
<path d="M923.62,518.38 C923.50,518.08 923.41,517.65 923.33,516.95 C923.27,516.37 923.24,515.87 923.26,515.74 C923.27,515.71 923.30,515.61 923.34,515.44" fill="none" stroke="rgb(0, 0, 0)" stroke-width="8.00" stroke-opacity="1.00" stroke-linejoin="round"/>
<path d="M926.75,516.00 C926.47,515.71 926.01,515.23 925.92,515.08 C925.70,514.75 925.51,514.44 925.36,514.17 C925.28,514.02 925.19,513.82 925.07,513.54" fill="none" stroke="rgb(0, 0, 0)" stroke-width="8.00" stroke-opacity="1.00" stroke-linejoin="round"/>
<path d="M928.00,511.88 C928.01,511.91 927.46,512.05 927.23,512.12 C925.03,512.85 923.61,514.02 923.29,514.34 C923.05,514.58 922.80,514.82 922.56,515.07" fill="none" stroke="rgb(0, 0, 0)" stroke-width="8.00" stroke-opacity="1.00" stroke-linejoin="round"/>
<path d="M924.25,507.12 C924.26,507.27 924.67,508.65 924.72,508.92 C924.81,509.38 924.93,510.20 925.06,511.36 C925.10,511.62 925.11,511.81 925.12,511.94" fill="none" stroke="rgb(0, 0, 0)" stroke-width="8.00" stroke-opacity="1.00" stroke-linejoin="round"/>
<path d="M950.62,492.38 C950.62,492.38 950.19,492.38 950.19,492.38 C950.19,492.38 949.76,492.86 949.76,492.86 C949.76,492.86 952.80,495.23 952.80,495.23 C952.80,495.23 949.49,493.32 949.49,493.32 C948.92,494.11 951.71,495.84 952.55,495.58 C953.55,495.23 951.85,493.03 951.01,492.73 C950.57,493.88 953.06,494.13 953.83,492.72 C954.02,492.37 954.08,491.71 954.06,491.33 C954.06,491.33 953.57,493.64 953.57,493.64 C953.57,493.64 953.82,491.44 953.82,491.44 C953.57,491.82 953.16,493.55 953.43,494.45 C953.46,494.57 953.53,494.75 953.62,495.00" fill="none" stroke="rgb(0, 0, 0)" stroke-width="8.00" stroke-opacity="1.00" stroke-linejoin="round"/>
<path d="M909.50,471.00 C910.60,470.35 911.83,469.84 913.10,469.61 C915.46,469.21 920.80,470.33 923.05,471.19 C925.16,472.02 945.14,481.47 947.16,482.37 C952.25,484.62 963.43,487.40 970.29,487.61 C980.73,487.88 992.51,484.71 994.27,484.17 C994.83,483.99 995.66,483.71 996.78,483.33" fill="none" stroke="rgb(0, 0, 0)" stroke-width="8.00" stroke-opacity="1.00" stroke-linejoin="round"/>
<path d="M955.00,472.00 C957.45,473.62 961.62,476.38 963.55,477.36 C967.67,479.42 977.98,482.46 984.29,483.03 C989.09,483.45 999.12,481.90 1002.48,480.65 C1002.81,480.52 1003.55,480.23 1004.69,479.78" fill="none" stroke="rgb(0, 0, 0)" stroke-width="8.00" stroke-opacity="1.00" stroke-linejoin="round"/>
<path d="M912.00,470.00 C912.00,470.00 912.25,470.00 912.25,470.00 C912.23,473.99 911.94,479.67 911.77,483.08 C911.51,490.31 911.26,504.02 911.90,508.81 C912.74,514.92 916.02,522.06 917.23,523.10 C917.39,523.23 917.72,523.45 918.23,523.74" fill="none" stroke="rgb(0, 0, 0)" stroke-width="8.00" stroke-opacity="1.00" stroke-linejoin="round"/>
<path d="M904.50,491.00 C903.37,494.34 903.30,499.50 903.59,501.68 C904.15,505.59 906.00,511.75 907.00,514.01 C908.91,518.21 912.79,522.84 915.28,524.59 C916.17,525.18 918.49,526.38 919.50,526.69 C919.97,526.83 920.84,527.01 922.13,527.23" fill="none" stroke="rgb(0, 0, 0)" stroke-width="8.00" stroke-opacity="1.00" stroke-linejoin="round"/>
<path d="M916.25,445.00 C916.20,444.99 916.15,444.99 916.12,445.00 C915.96,445.08 914.88,445.50 914.12,445.74 C912.56,446.34 908.38,449.38 906.68,451.32 C904.72,453.59 901.08,459.48 899.69,462.32 C898.01,465.82 896.29,471.07 895.65,474.33 C894.88,478.37 894.45,485.23 894.79,489.12 C895.09,492.26 896.19,497.63 897.29,500.67 C899.58,506.86 904.91,514.23 906.98,515.92 C907.35,516.22 908.20,516.87 909.53,517.86" fill="none" stroke="rgb(0, 0, 0)" stroke-width="8.00" stroke-opacity="1.00" stroke-linejoin="round"/>
<path d="M916.50,445.00 C916.47,444.65 916.58,444.22 916.89,443.73 C917.25,443.18 918.05,442.40 919.30,441.31" fill="none" stroke="rgb(0, 0, 0)" stroke-width="8.00" stroke-opacity="1.00" stroke-linejoin="round"/>
<path d="M1084.50,508.75 C1084.99,508.75 1085.49,508.75 1085.98,508.75 C1089.81,508.74 1094.01,508.17 1097.18,506.84 C1099.72,505.76 1103.77,503.09 1103.88,503.02" fill="none" stroke="rgb(0, 0, 0)" stroke-width="8.00" stroke-opacity="1.00" stroke-linejoin="round"/>
<path d="M1111.04,500.83 C1107.81,505.25 1101.37,511.00 1097.02,513.34 C1093.74,515.08 1088.06,517.14 1085.56,517.83 C1085.33,517.90 1084.89,518.04 1084.25,518.25" fill="none" stroke="rgb(0, 0, 0)" stroke-width="8.00" stroke-opacity="1.00" stroke-linejoin="round"/>
<path d="M1081.00,526.75 C1081.39,526.89 1081.63,526.98 1081.71,527.02 C1083.19,527.79 1092.18,544.50 1094.15,547.62 C1096.05,550.62 1099.95,555.71 1101.88,557.79 C1104.32,560.41 1109.74,564.22 1112.07,565.43 C1118.27,568.62 1125.74,568.96 1128.40,568.66" fill="none" stroke="rgb(0, 0, 0)" stroke-width="8.00" stroke-opacity="1.00" stroke-linejoin="round"/>
<path d="M1074.50,536.75 C1074.48,536.89 1074.59,537.38 1074.89,538.16 C1076.93,543.30 1084.11,553.58 1088.27,557.07 C1091.08,559.40 1096.94,563.21 1099.28,564.38 C1101.57,565.51 1107.01,567.36 1110.70,568.17 C1114.25,568.92 1118.37,569.09 1121.54,568.79 C1124.42,568.48 1128.89,567.22 1131.45,565.97 C1136.44,563.44 1140.34,558.04 1140.77,557.42 C1140.92,557.20 1141.07,556.98 1141.24,556.77" fill="none" stroke="rgb(0, 0, 0)" stroke-width="8.00" stroke-opacity="1.00" stroke-linejoin="round"/>
<path d="M1064.75,545.50 C1064.63,546.48 1068.06,554.88 1072.26,563.33 C1076.32,571.37 1080.32,580.71 1081.05,585.70 C1081.53,589.13 1081.04,595.72 1080.62,596.94 C1080.57,597.09 1080.45,597.36 1080.26,597.73" fill="none" stroke="rgb(0, 0, 0)" stroke-width="8.00" stroke-opacity="1.00" stroke-linejoin="round"/>
<path d="M915.00,468.25 C915.00,468.25 914.95,467.80 914.95,467.80 C913.95,470.74 911.01,485.56 910.42,491.17 C909.60,499.10 910.07,503.94 910.44,506.21 C912.13,505.16 912.73,492.28 912.97,478.67 C913.02,476.24 912.97,475.00 912.75,472.96 C913.81,472.42 915.28,472.33 917.52,472.87 C918.58,473.13 926.87,475.50 930.71,476.13 C937.49,477.23 944.86,479.20 946.40,479.33 C939.52,473.42 917.01,469.59 916.85,469.52 C916.85,469.52 918.00,469.00 918.00,469.00" fill="none" stroke="rgb(0, 0, 0)" stroke-width="8.00" stroke-opacity="1.00" stroke-linejoin="round"/>
<path d="M1077.75,540.00 C1077.75,540.00 1076.53,538.79 1076.53,538.79 C1076.53,538.79 1081.52,546.27 1081.52,546.27 C1081.52,546.27 1076.58,535.46 1076.58,535.46 C1076.60,539.88 1080.77,546.87 1081.40,547.77 C1081.40,547.77 1077.27,534.23 1077.27,534.23 C1078.46,539.32 1082.78,546.42 1084.06,547.58 C1084.06,547.58 1081.52,532.56 1081.52,532.56 C1081.52,532.56 1085.94,543.69 1085.94,543.69 C1085.94,543.69 1082.90,528.46 1082.90,528.46 C1083.15,530.94 1084.35,536.94 1085.20,539.53 C1085.91,541.69 1087.89,544.99 1087.88,544.96 C1087.39,543.66 1084.87,537.84 1083.76,535.83 C1082.04,532.80 1080.14,531.83 1079.31,531.81 C1078.80,535.25 1083.17,545.49 1086.12,550.52 C1086.12,550.52 1075.22,536.28 1075.22,536.28" fill="none" stroke="rgb(0, 0, 0)" stroke-width="8.00" stroke-opacity="1.00" stroke-linejoin="round"/>
<path d="M1074.91,542.33 C1075.66,543.86 1080.06,550.99 1083.86,554.92 C1088.76,559.90 1095.74,563.16 1096.02,562.92 C1096.02,562.92 1075.48,543.65 1075.48,543.65 C1075.09,544.51 1077.71,549.22 1079.79,551.56 C1082.03,554.04 1086.15,557.83 1088.99,559.72 C1091.81,561.57 1098.00,564.72 1100.92,565.75 C1107.01,567.85 1110.67,567.67 1111.40,567.50 C1111.23,567.24 1100.03,561.85 1096.16,558.94 C1091.60,555.47 1085.67,548.43 1083.61,544.49 C1083.07,543.45 1082.58,542.07 1081.83,539.67 C1083.09,540.44 1087.44,546.94 1089.09,549.09 C1096.37,558.51 1106.82,565.18 1108.58,566.21 C1100.53,558.88 1094.44,552.82 1090.58,548.00 C1088.77,545.73 1084.65,539.84 1083.58,538.10 C1083.71,538.21 1094.38,551.15 1098.05,554.67 C1100.24,556.74 1108.95,564.15 1108.94,564.15 C1104.77,560.17 1097.17,552.42 1093.54,547.69 C1089.39,542.25 1086.02,535.61 1085.77,534.96 C1089.32,540.60 1096.70,551.70 1100.42,555.51 C1106.05,561.21 1112.74,565.09 1114.17,565.33 C1114.46,565.38 1114.82,565.43 1115.25,565.50" fill="none" stroke="rgb(0, 0, 0)" stroke-width="8.00" stroke-opacity="1.00" stroke-linejoin="round"/>
<path d="M1067.75,556.75 C1067.75,556.75 1067.26,556.51 1067.26,556.51 C1067.16,556.83 1074.92,575.36 1076.03,578.66 C1077.61,583.37 1079.15,599.34 1079.25,599.65 C1078.41,589.45 1071.16,568.68 1070.54,568.10 C1069.50,568.98 1078.34,593.49 1078.71,594.33 C1078.71,594.33 1070.73,570.58 1070.73,570.58 C1070.07,571.57 1071.90,582.10 1073.12,585.57 C1073.70,587.18 1076.63,593.96 1077.79,595.88 C1078.31,595.53 1077.24,592.38 1075.11,586.43 C1071.98,577.57 1069.71,568.72 1069.81,567.60 C1075.26,574.26 1078.81,589.94 1078.94,590.19 C1078.94,590.19 1074.69,573.29 1074.69,573.29 C1075.46,574.62 1077.12,578.75 1077.80,580.89 C1079.10,585.08 1079.29,593.70 1079.00,594.85 C1076.49,581.71 1071.97,567.31 1068.04,558.65 C1066.91,556.08 1066.04,552.55 1065.51,551.56 C1065.51,551.56 1071.12,577.33 1071.12,577.33 C1071.12,577.33 1067.88,556.98 1067.88,556.98 C1067.22,560.36 1068.35,567.38 1068.90,567.96 C1069.01,568.07 1069.29,568.25 1069.73,568.49" fill="none" stroke="rgb(0, 0, 0)" stroke-width="8.00" stroke-opacity="1.00" stroke-linejoin="round"/>
<path d="M1107.51,501.94 C1097.09,510.31 1089.75,514.00 1088.90,514.44 C1088.90,514.44 1105.35,504.27 1105.35,504.27 C1105.35,504.27 1089.79,513.50 1089.79,513.50 C1089.79,513.50 1096.89,509.82 1096.89,509.82 C1096.89,509.82 1088.14,510.37 1088.14,510.37 C1088.14,510.37 1089.07,511.91 1089.07,511.91 C1089.07,511.91 1087.54,510.64 1087.54,510.64 C1087.46,511.31 1087.77,513.32 1088.08,513.84 C1088.65,514.73 1090.21,515.23 1091.95,514.64 C1097.56,512.65 1109.84,501.08 1110.24,500.79 C1108.37,503.15 1105.29,506.17 1101.48,509.32 C1098.67,511.60 1093.01,514.88 1090.83,515.60 C1090.40,515.74 1087.83,516.12 1087.60,516.18 C1089.41,514.32 1090.11,513.34 1089.72,512.74 C1089.22,511.99 1087.02,509.86 1086.97,509.50" fill="none" stroke="rgb(0, 0, 0)" stroke-width="8.00" stroke-opacity="1.00" stroke-linejoin="round"/>
<path d="M911.75,467.50 C911.48,466.29 911.29,465.64 911.19,465.56 C910.34,464.95 907.79,477.95 907.44,484.49 C907.28,487.46 907.25,497.88 907.25,498.94 C907.25,498.94 909.96,464.25 909.96,464.25 C908.08,466.52 906.67,471.47 906.15,474.34 C905.13,480.00 904.78,492.54 905.80,497.80 C906.23,499.92 906.85,500.95 907.12,501.06 C907.12,501.06 904.29,470.50 904.29,470.50 C902.28,471.82 900.73,475.54 900.23,478.28 C899.36,483.36 899.91,494.44 901.56,500.19 C902.57,503.63 904.76,507.42 905.23,507.90 C905.23,507.90 900.04,486.92 900.04,486.92 C899.66,487.85 899.23,492.49 899.96,496.08 C900.39,498.12 902.03,502.46 903.02,504.31 C906.31,510.38 910.05,513.28 910.54,513.46 C910.54,513.46 907.56,500.06 907.56,500.06 C907.87,503.18 909.12,508.57 910.31,511.73 C911.51,514.86 914.24,520.38 915.71,521.62 C914.19,514.68 908.70,507.46 908.52,507.44 C908.37,508.39 909.95,512.96 912.12,516.04 C915.17,520.31 919.49,523.94 919.62,524.00 C918.39,523.89 913.59,515.42 910.36,507.09 C908.15,501.24 904.77,486.16 904.81,480.97 C904.86,477.80 906.10,471.12 906.88,468.82 C908.50,464.16 915.09,454.73 918.35,451.12 C914.91,455.44 912.57,458.70 910.79,462.51 C907.13,470.46 905.46,476.49 905.33,477.52 C905.80,477.70 906.19,477.41 906.75,476.17 C907.78,473.86 910.51,466.74 911.50,464.98 C912.06,464.00 912.69,463.35 913.15,463.12 C914.79,463.71 921.14,467.97 922.88,468.87 C928.13,471.54 937.92,472.35 939.06,472.04 C939.06,472.04 912.81,469.23 912.81,469.23 C915.71,468.77 931.09,470.13 937.34,471.32 C945.03,472.71 966.20,476.55 966.15,476.42 C965.97,475.95 949.10,470.87 941.92,468.75 C933.52,466.49 928.66,466.76 928.21,467.27 C929.26,469.22 941.74,474.33 947.90,476.06 C961.32,479.79 978.94,480.25 989.38,480.21 C982.88,479.44 971.21,477.95 964.88,476.14 C953.77,472.87 950.87,472.25 949.33,472.54 C949.33,472.54 948.88,473.50 948.88,473.50 C949.01,475.17 951.83,478.01 953.65,478.88 C958.77,481.24 973.07,483.82 979.01,483.82 C989.29,483.80 1006.54,479.89 1007.10,479.50 C1005.47,479.11 989.85,477.43 983.67,475.88 C978.64,474.55 942.56,460.48 935.50,458.15 C931.91,456.97 926.88,455.89 923.81,455.96 C922.45,456.01 919.04,456.69 917.53,457.27 C915.68,458.01 913.33,459.71 912.29,461.02 C912.21,461.13 905.12,473.66 904.83,473.94 C904.64,473.71 904.41,470.66 904.69,468.75 C905.13,465.99 907.90,459.97 910.15,457.38 C913.90,453.14 925.89,445.59 926.79,445.81 C924.10,446.96 918.14,449.51 916.07,450.73 C913.80,452.10 909.75,456.20 908.07,458.52 C906.70,460.47 904.36,464.62 903.72,466.15 C901.54,471.50 902.14,477.58 902.23,478.40 C901.87,475.75 902.08,471.01 902.71,468.20 C903.48,464.91 906.21,459.87 908.43,457.69 C910.35,455.85 915.84,452.06 918.44,450.98 C920.31,450.22 927.34,448.64 928.40,448.29 C928.40,448.29 922.63,448.03 922.63,448.03 C922.86,445.37 927.97,442.13 930.24,440.88 C930.24,440.88 932.03,440.67 932.03,440.67" fill="none" stroke="rgb(0, 0, 0)" stroke-width="17.00" stroke-opacity="1.00" stroke-linejoin="round"/>
<path d="M984.76,449.24 C984.76,449.24 985.53,449.74 985.53,449.74" fill="none" stroke="rgb(0, 0, 0)" stroke-width="17.00" stroke-opacity="1.00" stroke-linejoin="round"/>
<path d="M993.34,460.57 C987.84,457.61 977.22,453.43 971.07,451.65 C965.24,449.98 949.54,446.73 945.53,446.31 C941.80,445.94 935.93,446.49 932.50,447.79 C930.33,448.65 925.99,451.75 925.12,453.48 C923.68,456.60 925.25,462.20 926.12,463.12 C927.19,464.20 929.01,464.92 931.15,465.12 C933.12,465.28 938.04,464.51 940.69,463.60 C942.80,462.86 946.36,461.14 948.42,459.77 C951.09,457.95 954.62,454.78 955.83,452.69 C955.83,452.69 955.65,451.33 955.65,451.33 C954.48,450.30 952.49,449.51 950.10,449.38 C944.82,449.10 930.36,452.74 924.83,455.32 C918.61,458.27 913.94,462.52 913.60,462.90 C916.23,463.69 922.52,463.30 925.80,463.40 C932.10,463.59 947.04,464.93 950.81,465.53 C956.10,466.39 965.27,468.84 971.07,471.07 C974.35,472.34 991.46,480.60 994.29,482.81 C995.40,483.71 996.76,485.42 997.02,486.31 C997.35,487.65 994.63,491.75 992.46,492.56 C990.48,493.23 984.22,492.04 980.92,490.44 C977.77,488.88 972.23,485.04 970.58,483.33 C969.50,482.18 968.74,480.72 968.88,480.31 C969.55,480.50 972.30,483.51 973.96,486.46 C980.26,498.18 990.09,516.30 991.19,520.52 C986.52,513.86 977.91,491.24 977.71,491.21 C977.08,492.40 979.00,504.78 980.39,509.14 C985.25,524.22 992.90,532.93 993.27,533.04 C993.70,531.85 985.12,516.15 983.89,513.64 C983.33,512.51 979.58,503.92 978.94,502.69 C977.95,502.69 981.73,515.42 983.55,519.65 C986.29,525.97 992.31,535.73 996.80,540.91 C999.20,543.66 1002.42,546.85 1004.21,547.96 C1004.55,547.54 1004.63,547.23 1004.21,546.46 C1002.27,543.00 998.20,538.21 996.02,536.09 C993.00,533.20 992.22,532.98 991.58,532.90 C990.92,533.55 990.81,536.21 991.75,538.77 C992.60,540.98 996.71,545.30 998.71,546.46 C1000.09,547.23 1002.08,547.47 1002.65,546.98 C1003.01,545.79 1002.10,542.89 1000.10,539.94 C996.88,535.27 988.87,529.30 987.65,529.35 C986.81,529.99 986.86,533.61 988.12,536.12 C989.26,538.29 993.92,543.73 996.10,545.46 C998.57,547.34 1002.41,548.59 1005.50,548.31 C1008.36,548.01 1015.24,543.59 1015.34,543.44 C1009.78,541.51 1003.76,544.10 1002.43,545.04 C1002.43,539.27 1002.09,527.01 1000.89,521.31 C999.50,514.81 994.81,500.70 992.66,495.70 C989.41,488.23 987.15,486.37 985.81,485.85 C984.32,486.65 983.58,487.38 983.29,488.62 C982.75,491.04 982.63,496.18 983.28,499.35 C984.34,504.38 989.14,515.46 992.48,520.56 C996.41,526.53 1005.95,537.07 1007.29,538.15 C1007.98,536.94 1004.35,527.16 999.98,516.70 C994.50,503.99 990.96,491.80 990.10,488.79 C991.39,494.04 995.19,505.15 999.14,512.42 C1001.60,516.91 1008.55,526.22 1012.93,530.48 C1014.58,532.09 1017.68,534.29 1020.12,535.19 C1020.12,535.19 1021.08,534.90 1021.08,534.90 C1021.57,533.02 1021.06,528.84 1019.65,524.89 C1018.67,522.18 1010.75,506.43 1007.20,499.36 C1002.25,489.13 998.13,475.08 997.96,474.19 C998.43,474.77 1007.02,491.17 1010.26,496.12 C1013.20,500.58 1021.56,511.09 1026.81,515.68 C1029.57,518.06 1032.24,519.32 1033.15,519.42 C1033.15,519.42 1033.96,518.73 1033.96,518.73 C1034.19,515.54 1028.56,504.98 1024.54,498.28" fill="none" stroke="rgb(0, 0, 0)" stroke-width="17.00" stroke-opacity="1.00" stroke-linejoin="round"/>
<path d="M1038.15,506.29 C1038.15,506.29 1040.99,508.96 1040.99,508.96" fill="none" stroke="rgb(0, 0, 0)" stroke-width="17.00" stroke-opacity="1.00" stroke-linejoin="round"/>
<path d="M1035.96,506.06 C1035.96,506.06 1030.70,506.83 1030.70,506.83" fill="none" stroke="rgb(0, 0, 0)" stroke-width="17.00" stroke-opacity="1.00" stroke-linejoin="round"/>
<path d="M1036.13,503.38 C1036.13,503.38 1031.76,499.81 1031.76,499.81" fill="none" stroke="rgb(0, 0, 0)" stroke-width="17.00" stroke-opacity="1.00" stroke-linejoin="round"/>
<path d="M1021.02,489.96 C1021.02,489.96 1011.75,479.06 1011.75,479.06" fill="none" stroke="rgb(0, 0, 0)" stroke-width="17.00" stroke-opacity="1.00" stroke-linejoin="round"/>
<path d="M1015.64,483.90 C1015.64,483.90 1006.77,473.03 1006.77,473.03" fill="none" stroke="rgb(0, 0, 0)" stroke-width="17.00" stroke-opacity="1.00" stroke-linejoin="round"/>
<path d="M986.14,455.65 C982.28,455.33 973.43,454.67 963.64,454.37 C955.75,454.19 948.09,454.96 944.81,456.29 C944.81,456.29 1006.79,477.06 1006.79,477.06 C1005.91,478.14 974.09,470.58 960.23,465.68 C944.08,459.77 938.42,455.69 937.48,454.94 C938.36,454.31 942.34,453.95 945.44,454.20 C951.42,454.71 961.97,457.49 969.80,460.14 C980.85,464.07 1007.88,475.78 1009.46,477.73 C1009.66,477.98 1010.09,478.66 1010.75,479.75" fill="none" stroke="rgb(0, 0, 0)" stroke-width="17.00" stroke-opacity="1.00" stroke-linejoin="round"/>
<path d="M1074.75,510.75 C1074.75,510.75 1077.23,513.12 1077.23,513.12 C1077.23,513.12 1073.42,508.39 1073.42,508.39" fill="none" stroke="rgb(0, 0, 0)" stroke-width="17.00" stroke-opacity="1.00" stroke-linejoin="round"/>
<path d="M1059.35,509.00 C1059.35,509.00 1061.93,509.93 1061.93,509.93" fill="none" stroke="rgb(0, 0, 0)" stroke-width="17.00" stroke-opacity="1.00" stroke-linejoin="round"/>
<path d="M1063.86,512.14 C1063.86,512.14 1064.14,514.54 1064.14,514.54" fill="none" stroke="rgb(0, 0, 0)" stroke-width="17.00" stroke-opacity="1.00" stroke-linejoin="round"/>
<path d="M1061.15,510.27 C1058.91,510.14 1055.53,510.52 1054.65,511.17 C1053.83,511.83 1055.85,515.96 1056.04,516.32" fill="none" stroke="rgb(0, 0, 0)" stroke-width="17.00" stroke-opacity="1.00" stroke-linejoin="round"/>
<path d="M1050.96,510.83 C1049.87,512.96 1051.15,515.26 1052.04,515.46 C1052.04,515.46 1054.72,511.00 1054.72,511.00" fill="none" stroke="rgb(0, 0, 0)" stroke-width="17.00" stroke-opacity="1.00" stroke-linejoin="round"/>
<path d="M1058.08,508.37 C1058.08,508.37 1057.13,509.32 1057.13,509.32" fill="none" stroke="rgb(0, 0, 0)" stroke-width="17.00" stroke-opacity="1.00" stroke-linejoin="round"/>
<path d="M1049.75,511.04 C1048.89,513.08 1049.68,515.05 1050.19,515.42 C1050.19,515.42 1053.55,512.47 1053.55,512.47 C1049.18,511.24 1047.27,523.35 1047.54,523.76 C1047.54,523.76 1051.46,517.55 1051.46,517.55 C1048.13,518.97 1048.66,525.70 1049.39,525.99 C1049.39,525.99 1050.56,524.16 1050.56,524.16 C1050.56,524.16 1051.63,524.69 1051.63,524.69 C1051.63,524.69 1050.74,521.78 1050.74,521.78 C1050.74,521.78 1052.45,524.63 1052.45,524.63 C1052.44,524.66 1050.75,524.99 1048.87,526.06 C1047.31,526.98 1038.64,534.28 1037.91,534.29 C1037.24,532.75 1037.07,531.99 1037.26,531.02 C1038.30,525.96 1041.83,517.67 1044.11,513.21" fill="none" stroke="rgb(0, 0, 0)" stroke-width="17.00" stroke-opacity="1.00" stroke-linejoin="round"/>
<path d="M1042.62,509.50 C1037.20,516.07 1032.83,525.95 1032.59,527.92 C1033.61,527.94 1034.38,527.64 1035.27,526.51 C1037.26,524.00 1042.20,516.53 1043.24,514.91" fill="none" stroke="rgb(0, 0, 0)" stroke-width="17.00" stroke-opacity="1.00" stroke-linejoin="round"/>
<path d="M1036.08,513.35 C1028.31,521.13 1022.79,534.85 1022.18,535.66 C1021.55,535.07 1017.50,522.77 1016.02,519.10 C1013.76,513.56 1009.17,506.27 1006.14,503.26 C1004.40,501.57 1001.63,499.72 1000.48,499.43 C999.56,499.22 998.43,499.60 998.03,500.25 C997.50,501.30 997.77,504.97 998.73,508.24 C1000.34,513.49 1005.21,523.62 1008.88,528.90 C1018.64,542.85 1024.09,546.05 1024.24,546.09 C1023.60,544.35 1019.20,541.84 1017.68,542.14 C1016.68,542.37 1015.26,543.47 1015.18,544.10 C1015.16,545.47 1018.36,546.95 1019.92,546.66 C1019.92,546.66 1011.79,548.62 1011.79,548.62 C1012.61,548.63 1019.18,548.25 1020.92,548.27 C1022.27,548.30 1026.97,549.18 1029.46,550.19 C1030.56,550.65 1036.32,554.36 1039.11,556.16 C1042.52,558.41 1044.68,562.54 1047.28,565.69 C1044.94,558.84 1043.93,551.05 1043.75,547.15" fill="none" stroke="rgb(0, 0, 0)" stroke-width="17.00" stroke-opacity="1.00" stroke-linejoin="round"/>
<path d="M1042.42,538.08 C1042.42,538.08 1044.67,533.49 1044.67,533.49 C1045.11,530.82 1046.43,524.27 1047.64,523.30 C1048.10,522.94 1048.58,522.70 1048.82,522.67 C1048.82,522.67 1043.56,534.97 1043.56,534.97 C1043.56,534.97 1042.97,537.18 1042.97,537.18" fill="none" stroke="rgb(0, 0, 0)" stroke-width="17.00" stroke-opacity="1.00" stroke-linejoin="round"/>
<path d="M1040.00,548.51 C1040.00,548.51 1039.87,549.01 1039.87,549.01" fill="none" stroke="rgb(0, 0, 0)" stroke-width="17.00" stroke-opacity="1.00" stroke-linejoin="round"/>
<path d="M1038.09,548.21 C1038.09,548.21 1038.96,548.14 1038.96,548.14" fill="none" stroke="rgb(0, 0, 0)" stroke-width="17.00" stroke-opacity="1.00" stroke-linejoin="round"/>
<path d="M1043.46,538.71 C1043.46,538.71 1045.00,536.26 1045.00,536.26" fill="none" stroke="rgb(0, 0, 0)" stroke-width="17.00" stroke-opacity="1.00" stroke-linejoin="round"/>
<path d="M1040.66,539.81 C1040.66,539.81 1044.13,533.34 1044.13,533.34 C1044.13,533.34 1048.46,526.17 1048.46,526.17 C1048.46,526.17 1045.14,532.31 1045.14,532.31" fill="none" stroke="rgb(0, 0, 0)" stroke-width="17.00" stroke-opacity="1.00" stroke-linejoin="round"/>
<path d="M1046.65,536.93 C1046.65,536.93 1044.14,539.03 1044.14,539.03" fill="none" stroke="rgb(0, 0, 0)" stroke-width="17.00" stroke-opacity="1.00" stroke-linejoin="round"/>
<path d="M1041.99,539.40 C1041.99,539.40 1039.37,539.27 1039.37,539.27" fill="none" stroke="rgb(0, 0, 0)" stroke-width="17.00" stroke-opacity="1.00" stroke-linejoin="round"/>
<path d="M1040.82,550.87 C1040.82,550.87 1040.61,552.26 1040.61,552.26" fill="none" stroke="rgb(0, 0, 0)" stroke-width="17.00" stroke-opacity="1.00" stroke-linejoin="round"/>
<path d="M1034.88,536.51 C1034.88,536.51 1032.15,532.01 1032.15,532.01 C1031.32,533.45 1031.92,538.23 1032.55,540.73 C1033.99,546.28 1037.46,552.58 1038.90,553.43" fill="none" stroke="rgb(0, 0, 0)" stroke-width="17.00" stroke-opacity="1.00" stroke-linejoin="round"/>
<path d="M1028.89,537.30 C1028.17,536.84 1026.68,536.25 1025.67,536.71 C1024.52,537.26 1024.67,540.59 1025.53,541.58 C1026.48,542.65 1029.49,542.66 1031.38,541.72 C1031.87,541.46 1033.09,540.65 1033.76,540.07 C1034.07,539.81 1034.73,539.20 1035.75,538.25" fill="none" stroke="rgb(0, 0, 0)" stroke-width="17.00" stroke-opacity="1.00" stroke-linejoin="round"/>
<path d="M966.00,444.50 C966.00,444.50 965.25,444.50 965.25,444.50" fill="none" stroke="rgb(0, 0, 0)" stroke-width="17.00" stroke-opacity="1.00" stroke-linejoin="round"/>
<path d="M973.14,446.16 C973.14,446.16 979.48,450.23 979.48,450.23" fill="none" stroke="rgb(0, 0, 0)" stroke-width="17.00" stroke-opacity="1.00" stroke-linejoin="round"/>
<path d="M1000.29,465.98 C1000.29,465.98 1004.52,471.20 1004.52,471.20" fill="none" stroke="rgb(0, 0, 0)" stroke-width="17.00" stroke-opacity="1.00" stroke-linejoin="round"/>
<path d="M993.50,462.00 C993.50,462.00 993.49,461.25 993.49,461.25 C995.77,462.25 1006.80,474.03 1010.00,478.56 C1013.65,483.77 1017.70,492.05 1023.54,504.69 C1025.84,509.55 1027.86,513.34 1028.46,514.12" fill="none" stroke="rgb(0, 0, 0)" stroke-width="17.00" stroke-opacity="1.00" stroke-linejoin="round"/>
<path d="M991.50,461.25 C991.50,461.25 992.04,461.00 992.04,461.00 C994.47,461.89 1007.09,472.64 1010.48,476.40 C1014.43,480.82 1020.10,489.11 1024.99,496.94 C1030.03,504.98 1036.13,513.15 1038.25,514.06 C1038.47,514.15 1038.80,514.30 1039.25,514.50" fill="none" stroke="rgb(0, 0, 0)" stroke-width="17.00" stroke-opacity="1.00" stroke-linejoin="round"/>
<path d="M1010.50,485.50 C1010.50,485.50 1009.25,484.75 1009.25,484.75 C1017.94,491.75 1031.73,498.69 1034.21,499.88 C1034.21,499.88 1035.27,500.62 1035.27,500.62" fill="none" stroke="rgb(0, 0, 0)" stroke-width="17.00" stroke-opacity="1.00" stroke-linejoin="round"/>
<path d="M999.32,465.49 C1000.82,467.20 1011.63,478.81 1017.01,484.58 C1023.96,491.91 1030.17,497.68 1033.92,500.53" fill="none" stroke="rgb(0, 0, 0)" stroke-width="17.00" stroke-opacity="1.00" stroke-linejoin="round"/>
<path d="M1002.01,467.22 C1004.47,469.82 1009.41,475.67 1011.49,478.53 C1012.65,480.13 1014.44,482.83 1015.56,484.63 C1016.00,485.34 1016.43,486.04 1016.86,486.75" fill="none" stroke="rgb(0, 0, 0)" stroke-width="17.00" stroke-opacity="1.00" stroke-linejoin="round"/>
<path d="M1120.50,492.50 C1120.18,492.92 1119.93,493.25 1119.75,493.50 C1117.54,496.52 1114.88,499.30 1111.56,501.78 C1108.69,503.88 1102.80,507.48 1099.39,509.34 C1097.72,510.23 1094.62,511.87 1093.18,512.62 C1092.74,512.85 1092.29,513.09 1091.84,513.32" fill="none" stroke="rgb(0, 0, 0)" stroke-width="17.00" stroke-opacity="1.00" stroke-linejoin="round"/>
<path d="M1119.50,494.50 C1117.71,495.83 1116.89,496.42 1114.98,497.73 C1109.09,502.00 1100.21,508.35 1097.22,510.43 C1096.26,511.07 1095.31,511.71 1094.35,512.35" fill="none" stroke="rgb(0, 0, 0)" stroke-width="17.00" stroke-opacity="1.00" stroke-linejoin="round"/>
<path d="M1069.00,542.00 C1069.00,542.00 1068.75,542.00 1068.75,542.00 C1069.32,555.01 1072.34,572.13 1072.85,574.06 C1072.96,574.47 1073.17,575.10 1073.48,575.96" fill="none" stroke="rgb(0, 0, 0)" stroke-width="17.00" stroke-opacity="1.00" stroke-linejoin="round"/>
<path d="M1068.00,542.50 C1067.83,542.57 1067.06,544.33 1066.66,545.73 C1065.46,550.07 1067.88,561.85 1069.50,565.81 C1070.22,567.55 1071.04,569.27 1071.62,570.27 C1071.89,570.73 1072.16,571.18 1072.43,571.64" fill="none" stroke="rgb(0, 0, 0)" stroke-width="17.00" stroke-opacity="1.00" stroke-linejoin="round"/>
<path d="M1072.75,537.50 C1072.75,537.50 1072.62,537.38 1072.62,537.38 C1072.62,537.38 1072.38,537.38 1072.38,537.38 C1072.07,537.67 1070.95,539.66 1070.56,540.99 C1070.11,542.53 1069.53,549.82 1069.60,552.32 C1069.63,553.55 1070.19,561.04 1070.28,562.21" fill="none" stroke="rgb(0, 0, 0)" stroke-width="17.00" stroke-opacity="1.00" stroke-linejoin="round"/>
<path d="M1134.38,462.00 C1134.39,462.08 1134.20,462.31 1133.19,463.38 C1124.64,472.53 1086.62,505.73 1084.61,507.48" fill="none" stroke="rgb(0, 0, 0)" stroke-width="8.00" stroke-opacity="1.00" stroke-linejoin="round"/>
<path d="M1077.64,513.59 C1077.64,513.59 1077.53,515.01 1077.53,515.01" fill="none" stroke="rgb(0, 0, 0)" stroke-width="8.00" stroke-opacity="1.00" stroke-linejoin="round"/>
<path d="M1072.13,518.53 C1072.13,518.53 1072.14,519.85 1072.14,519.85" fill="none" stroke="rgb(0, 0, 0)" stroke-width="8.00" stroke-opacity="1.00" stroke-linejoin="round"/>
<path d="M1066.02,524.03 C1066.02,524.03 1063.87,524.64 1063.87,524.64" fill="none" stroke="rgb(0, 0, 0)" stroke-width="8.00" stroke-opacity="1.00" stroke-linejoin="round"/>
<path d="M1059.60,529.82 C1059.60,529.82 1059.27,531.45 1059.27,531.45" fill="none" stroke="rgb(0, 0, 0)" stroke-width="8.00" stroke-opacity="1.00" stroke-linejoin="round"/>
<path d="M1055.92,533.74 C1055.92,533.74 1055.12,534.87 1055.12,534.87" fill="none" stroke="rgb(0, 0, 0)" stroke-width="8.00" stroke-opacity="1.00" stroke-linejoin="round"/>
<path d="M1037.06,550.13 C1026.21,560.30 1006.58,578.87 997.78,587.28 C996.05,588.99 993.38,591.67 992.44,592.62" fill="none" stroke="rgb(0, 0, 0)" stroke-width="8.00" stroke-opacity="1.00" stroke-linejoin="round"/>
<path d="M1132.50,457.50 C1132.50,457.50 1132.73,456.33 1132.73,456.33 C1131.05,456.64 1130.18,457.09 1128.63,458.62 C1106.88,479.24 1083.28,501.60 1081.43,503.35" fill="none" stroke="rgb(0, 0, 0)" stroke-width="8.00" stroke-opacity="1.00" stroke-linejoin="round"/>
<path d="M1076.98,507.71 C1076.98,507.71 1074.80,509.91 1074.80,509.91" fill="none" stroke="rgb(0, 0, 0)" stroke-width="8.00" stroke-opacity="1.00" stroke-linejoin="round"/>
<path d="M1068.25,516.05 C1068.25,516.05 1066.73,516.40 1066.73,516.40" fill="none" stroke="rgb(0, 0, 0)" stroke-width="8.00" stroke-opacity="1.00" stroke-linejoin="round"/>
<path d="M1062.99,521.72 C1062.99,521.72 1064.19,524.40 1064.19,524.40" fill="none" stroke="rgb(0, 0, 0)" stroke-width="8.00" stroke-opacity="1.00" stroke-linejoin="round"/>
<path d="M1057.24,527.48 C1057.24,527.48 1055.05,529.68 1055.05,529.68" fill="none" stroke="rgb(0, 0, 0)" stroke-width="8.00" stroke-opacity="1.00" stroke-linejoin="round"/>
<path d="M1152.88,427.38 C1152.88,427.38 1152.61,427.71 1152.61,427.71 C1152.61,427.71 1152.63,428.13 1152.63,428.13 C1154.71,428.01 1160.14,425.66 1163.99,423.61 C1176.47,416.88 1177.13,416.61 1177.78,416.66 C1178.14,417.83 1176.48,421.38 1173.80,426.05 C1171.18,430.59 1170.25,432.41 1170.75,433.28 C1171.73,434.78 1176.25,437.22 1178.26,438.01 C1180.36,438.83 1186.67,440.74 1188.09,441.72 C1188.45,441.97 1188.82,442.40 1189.22,443.03 C1188.98,444.03 1187.96,445.09 1186.38,445.62 C1184.68,446.18 1174.97,446.90 1174.31,447.06 C1172.48,447.55 1171.38,449.09 1170.78,451.84 C1165.96,475.60 1164.14,477.91 1163.47,478.34 C1162.06,477.87 1159.89,474.69 1157.46,470.13 C1156.52,468.36 1153.18,461.53 1151.66,459.91 C1150.28,458.49 1145.78,456.54 1143.28,455.80 C1140.48,454.99 1133.84,454.16 1130.78,454.09 C1125.27,453.98 1115.71,455.69 1106.88,457.56 C1109.06,457.28 1114.28,454.57 1116.16,453.22 C1118.67,451.38 1124.03,446.90 1126.31,444.72 C1129.63,441.44 1132.44,438.06 1132.59,436.72 C1132.59,436.72 1131.56,436.44 1131.56,436.44 C1131.39,436.03 1131.79,428.83 1131.78,427.91 C1131.78,427.05 1131.58,421.73 1132.12,421.28 C1135.28,421.53 1141.76,424.32 1144.60,426.14 C1145.47,426.69 1147.99,428.30 1149.70,429.25 C1152.28,430.65 1154.93,430.80 1155.75,430.62" fill="none" stroke="rgb(0, 0, 0)" stroke-width="8.00" stroke-opacity="1.00" stroke-linejoin="round"/>
<path d="M1142.50,456.50 C1142.52,456.49 1142.47,456.53 1142.46,456.54 C1141.74,457.18 1140.92,457.84 1139.26,459.14 C1130.42,466.08 1125.20,470.90 1124.44,471.56 C1123.38,472.48 1121.59,473.95 1120.50,474.81" fill="none" stroke="rgb(0, 0, 0)" stroke-width="8.00" stroke-opacity="1.00" stroke-linejoin="round"/>
<path d="M1044.45,546.03 C1044.45,546.03 1045.68,546.66 1045.68,546.66 C1045.68,546.66 1046.65,547.61 1046.65,547.61" fill="none" stroke="rgb(0, 0, 0)" stroke-width="8.00" stroke-opacity="1.00" stroke-linejoin="round"/>
<path d="M914.00,469.50 C914.00,469.50 911.08,468.71 911.08,468.71 C912.51,470.38 923.27,474.57 934.15,478.37 C942.46,481.20 961.82,487.86 963.63,488.54 C968.56,490.41 973.37,492.86 975.92,493.96 C972.29,491.60 955.45,484.96 947.92,482.67 C944.88,481.75 927.66,477.00 920.96,474.83 C930.38,479.30 937.18,482.12 947.89,485.63 C956.35,488.28 971.03,492.87 977.25,494.82 C977.78,494.99 978.31,495.16 978.83,495.33" fill="none" stroke="rgb(0, 0, 0)" stroke-width="8.00" stroke-opacity="1.00" stroke-linejoin="round"/>
<path d="M923.25,506.62 C923.25,506.62 923.25,506.69 923.25,506.69 C923.17,506.95 926.12,507.87 926.71,507.88 C926.78,507.87 926.86,507.87 926.95,507.88 C926.97,507.87 926.98,507.87 927.00,507.88" fill="none" stroke="rgb(0, 0, 0)" stroke-width="8.00" stroke-opacity="1.00" stroke-linejoin="round"/>
<path d="M923.88,507.38 C923.88,507.38 923.75,507.38 923.75,507.38 C924.29,507.45 925.95,507.66 927.07,507.80 C927.36,507.84 927.67,507.89 927.99,507.95 C927.99,507.95 928.12,507.88 928.12,507.88" fill="none" stroke="rgb(0, 0, 0)" stroke-width="8.00" stroke-opacity="1.00" stroke-linejoin="round"/>
<path d="M923.62,506.75 C923.77,506.77 924.80,507.24 925.87,507.25 C926.36,507.25 926.45,507.24 926.50,507.19 C926.00,506.29 922.05,507.22 921.01,507.56 C920.82,507.62 919.91,507.94 919.38,508.12" fill="none" stroke="rgb(0, 0, 0)" stroke-width="8.00" stroke-opacity="1.00" stroke-linejoin="round"/>
<path d="M1045.38,602.00 C1045.14,602.22 1044.91,602.45 1044.68,602.69 C1038.02,609.41 1036.72,612.35 1036.41,613.29" fill="none" stroke="rgb(0, 0, 0)" stroke-width="8.00" stroke-opacity="1.00" stroke-linejoin="round"/>
<path d="M1017.25,594.50 C1017.25,594.50 1017.12,594.50 1017.12,594.50 C1017.12,594.50 1017.00,594.38 1017.00,594.38 C1017.00,594.38 1017.23,594.30 1017.23,594.30 C1018.36,595.15 1029.92,607.85 1034.39,611.95 C1034.79,612.32 1035.23,612.70 1035.69,613.08 C1035.96,613.31 1036.23,613.53 1036.50,613.75" fill="none" stroke="rgb(0, 0, 0)" stroke-width="8.00" stroke-opacity="1.00" stroke-linejoin="round"/>
<path d="M1084.25,508.12 C1084.32,508.25 1084.40,508.37 1084.48,508.48 C1085.58,509.94 1086.97,510.70 1087.86,510.91 C1088.07,510.96 1088.37,510.99 1088.75,511.00" fill="none" stroke="rgb(0, 0, 0)" stroke-width="8.00" stroke-opacity="1.00" stroke-linejoin="round"/>
<path d="M1057.25,528.38 C1057.25,528.38 1055.08,530.17 1055.08,530.17" fill="none" stroke="rgb(0, 0, 0)" stroke-width="8.00" stroke-opacity="1.00" stroke-linejoin="round"/>
<path d="M1050.11,533.62 C1050.11,533.62 1047.60,535.59 1047.60,535.59" fill="none" stroke="rgb(0, 0, 0)" stroke-width="8.00" stroke-opacity="1.00" stroke-linejoin="round"/>
<path d="M1046.05,536.71 C1046.05,536.71 1043.88,538.49 1043.88,538.49" fill="none" stroke="rgb(0, 0, 0)" stroke-width="8.00" stroke-opacity="1.00" stroke-linejoin="round"/>
<path d="M1043.80,538.62 C1043.80,538.62 1041.58,540.75 1041.58,540.75" fill="none" stroke="rgb(0, 0, 0)" stroke-width="8.00" stroke-opacity="1.00" stroke-linejoin="round"/>
<path d="M1041.01,541.26 C1041.01,541.26 1038.95,544.07 1038.95,544.07" fill="none" stroke="rgb(0, 0, 0)" stroke-width="8.00" stroke-opacity="1.00" stroke-linejoin="round"/>
<path d="M1037.72,544.34 C1037.72,544.34 1037.06,546.93 1037.06,546.93" fill="none" stroke="rgb(0, 0, 0)" stroke-width="8.00" stroke-opacity="1.00" stroke-linejoin="round"/>
<path d="M1036.12,546.25" fill="none" stroke="rgb(0, 0, 0)" stroke-width="8.00" stroke-opacity="1.00" stroke-linejoin="round"/>
<path d="M1059.38,529.88 C1059.38,529.88 1059.50,529.88 1059.50,529.88 C1059.50,529.88 1059.11,530.38 1059.11,530.38" fill="none" stroke="rgb(0, 0, 0)" stroke-width="8.00" stroke-opacity="1.00" stroke-linejoin="round"/>
<path d="M1056.06,533.58 C1056.06,533.58 1054.53,535.57 1054.53,535.57" fill="none" stroke="rgb(0, 0, 0)" stroke-width="8.00" stroke-opacity="1.00" stroke-linejoin="round"/>
<path d="M1049.56,539.38 C1049.56,539.38 1047.10,541.77 1047.10,541.77" fill="none" stroke="rgb(0, 0, 0)" stroke-width="8.00" stroke-opacity="1.00" stroke-linejoin="round"/>
<path d="M1046.81,541.77 C1046.81,541.77 1044.90,543.52 1044.90,543.52" fill="none" stroke="rgb(0, 0, 0)" stroke-width="8.00" stroke-opacity="1.00" stroke-linejoin="round"/>
<path d="M1044.31,544.44 C1044.31,544.44 1041.45,546.36 1041.45,546.36" fill="none" stroke="rgb(0, 0, 0)" stroke-width="8.00" stroke-opacity="1.00" stroke-linejoin="round"/>
<path d="M1043.72,545.12 C1043.72,545.12 1040.48,547.03 1040.48,547.03" fill="none" stroke="rgb(0, 0, 0)" stroke-width="8.00" stroke-opacity="1.00" stroke-linejoin="round"/>
<path d="M1039.43,549.33 C1038.90,549.94 1038.57,550.32 1038.46,550.46 C1038.34,550.60 1038.27,550.69 1038.25,550.75" fill="none" stroke="rgb(0, 0, 0)" stroke-width="8.00" stroke-opacity="1.00" stroke-linejoin="round"/>
<path d="M1041.25,537.25 C1041.25,537.25 1041.08,537.12 1041.08,537.12 C1041.08,537.12 1035.19,544.32 1035.19,544.32 C1035.19,544.32 1040.35,538.19 1040.35,538.19 C1037.17,542.71 1036.42,543.91 1035.99,544.84 C1035.94,544.95 1035.90,545.05 1035.88,545.12" fill="none" stroke="rgb(0, 0, 0)" stroke-width="8.00" stroke-opacity="1.00" stroke-linejoin="round"/>
<path d="M1035.88,544.88 C1035.88,544.88 1035.81,544.75 1035.81,544.75 C1035.81,544.75 1035.75,544.75 1035.75,544.75 C1036.37,545.20 1037.20,545.84 1037.36,545.95 C1038.20,546.50 1039.37,547.14 1040.21,547.50 C1040.72,547.72 1041.22,547.93 1041.73,548.15" fill="none" stroke="rgb(0, 0, 0)" stroke-width="8.00" stroke-opacity="1.00" stroke-linejoin="round"/>
<path d="M1059.62,529.75 C1059.66,529.81 1059.08,530.44 1058.85,530.71 C1058.23,531.41 1047.61,541.49 1044.28,544.92 C1043.25,545.97 1041.89,547.36 1041.55,547.70" fill="none" stroke="rgb(0, 0, 0)" stroke-width="8.00" stroke-opacity="1.00" stroke-linejoin="round"/>
<path d="M1060.00,530.12 C1060.00,530.12 1060.00,530.00 1060.00,530.00 C1059.94,530.01 1059.72,530.17 1059.23,530.57 C1057.71,531.85 1046.18,543.51 1043.76,546.10 C1043.36,546.54 1042.96,546.98 1042.56,547.41" fill="none" stroke="rgb(0, 0, 0)" stroke-width="8.00" stroke-opacity="1.00" stroke-linejoin="round"/>
<path d="M1064.00,506.50 C1064.00,506.50 1063.94,506.50 1063.94,506.50 C1063.91,506.53 1063.60,506.91 1063.68,507.43 C1063.90,508.73 1067.88,513.19 1071.22,516.19 C1071.58,516.51 1071.92,516.82 1072.23,517.10" fill="none" stroke="rgb(0, 0, 0)" stroke-width="8.00" stroke-opacity="1.00" stroke-linejoin="round"/>
<path d="M1063.62,508.50 C1063.63,508.84 1063.94,509.57 1064.49,510.38 C1065.29,511.53 1066.89,512.75 1068.00,513.50 C1068.00,513.50 1063.30,510.01 1063.30,510.01 C1063.30,510.01 1063.61,510.00 1063.61,510.00" fill="none" stroke="rgb(0, 0, 0)" stroke-width="8.00" stroke-opacity="1.00" stroke-linejoin="round"/>
<path d="M1057.00,515.50 C1057.00,515.50 1056.89,515.39 1056.89,515.39 C1056.97,515.48 1057.64,516.23 1058.03,516.71 C1062.50,522.13 1067.67,526.31 1068.00,526.51 C1068.07,526.55 1068.19,526.63 1068.37,526.74" fill="none" stroke="rgb(0, 0, 0)" stroke-width="8.00" stroke-opacity="1.00" stroke-linejoin="round"/>
<path d="M1076.38,509.12 C1076.38,509.12 1076.38,509.00 1076.38,509.00 C1076.38,509.00 1076.81,509.68 1076.81,509.68 C1076.81,509.68 1078.73,513.98 1078.73,513.98" fill="none" stroke="rgb(0, 0, 0)" stroke-width="8.00" stroke-opacity="1.00" stroke-linejoin="round"/>
<path d="M1076.33,509.42 C1076.32,509.40 1076.60,510.08 1076.96,510.56 C1077.16,510.82 1077.59,511.30 1078.25,512.00" fill="none" stroke="rgb(0, 0, 0)" stroke-width="8.00" stroke-opacity="1.00" stroke-linejoin="round"/>
<path d="M1076.12,507.38 C1076.12,507.38 1076.12,507.50 1076.12,507.50 C1075.79,507.55 1075.49,507.66 1075.29,507.85 C1074.99,508.14 1074.83,508.45 1074.85,508.64 C1074.85,508.64 1076.48,508.85 1076.48,508.85 C1076.48,508.85 1075.21,508.97 1075.21,508.97 C1075.21,508.97 1075.38,509.12 1075.38,509.12" fill="none" stroke="rgb(0, 0, 0)" stroke-width="8.00" stroke-opacity="1.00" stroke-linejoin="round"/>
<path d="M928.25,441.25 C928.25,441.25 926.23,441.73 926.23,441.73 C926.73,440.53 931.98,438.13 935.61,437.72 C940.72,437.20 953.85,438.08 958.20,438.86 C964.39,439.98 973.78,442.85 978.92,445.77 C991.14,452.76 995.23,460.46 995.40,460.92 C994.91,461.02 982.92,450.73 977.21,447.60 C973.23,445.44 963.26,441.99 957.47,441.31 C953.13,440.83 934.91,441.59 935.00,441.33 C935.54,440.02 950.26,441.68 958.61,443.60 C970.41,446.45 974.80,447.83 975.19,448.21 C972.27,447.91 953.47,444.31 948.52,443.82 C944.46,443.44 936.96,443.27 933.22,443.21 C929.28,443.21 926.25,443.83 923.46,444.92 C918.48,446.91 917.79,447.11 917.66,446.88 C917.64,446.43 918.66,444.69 919.91,443.63 C921.61,442.20 925.57,440.31 928.52,439.20 C931.64,438.07 938.23,436.84 941.96,436.59 C944.97,436.42 949.98,437.55 953.29,439.08 C956.89,440.78 968.02,447.54 969.00,448.43 C963.90,445.43 955.27,441.79 949.43,441.31 C942.76,440.80 930.47,441.37 925.58,442.98 C921.33,444.44 916.65,448.83 916.15,449.21 C917.98,446.25 922.36,442.56 925.24,441.25 C926.72,440.60 934.39,438.42 937.63,437.70 C941.09,436.96 946.68,436.62 950.22,437.18 C952.61,437.58 958.61,439.53 961.17,440.74 C963.73,441.99 969.04,445.45 971.73,447.67 C976.02,451.24 978.77,456.01 978.75,456.35 C974.76,453.32 961.33,446.24 958.34,445.12 C956.14,444.31 938.63,439.04 937.05,438.88 C934.75,438.67 930.88,439.55 927.69,440.43 C924.42,441.39 919.81,444.16 917.65,445.90 C916.35,446.97 914.29,449.22 914.26,449.17 C914.42,448.53 916.45,446.01 918.36,444.45 C920.22,442.98 924.76,441.00 928.98,439.66 C931.45,438.90 937.08,437.90 940.85,438.02 C943.92,438.13 949.58,439.41 951.08,439.75 C944.16,439.59 932.81,440.99 928.04,442.83 C924.30,444.31 918.11,448.46 917.43,448.48 C917.71,446.77 920.68,443.18 922.43,441.77 C924.14,440.41 928.36,438.03 931.49,437.14 C935.40,436.06 947.81,435.98 952.96,437.00 C958.80,438.18 967.38,441.86 970.41,443.86 C971.84,444.82 985.19,454.12 986.99,455.49 C991.51,458.96 999.07,467.02 999.35,467.26 C999.35,467.26 987.17,454.29 987.17,454.29 C988.01,454.28 990.89,455.44 992.48,456.48 C995.43,458.43 1000.24,462.58 1002.24,465.04 C1004.37,467.71 1008.62,475.68 1009.40,476.73 C1010.19,477.79 1011.85,479.63 1011.93,479.63" fill="none" stroke="rgb(0, 0, 0)" stroke-width="8.00" stroke-opacity="1.00" stroke-linejoin="round"/>
<path d="M1036.62,499.38 C1036.62,499.38 1034.96,498.75 1034.96,498.75 C1034.77,499.06 1037.07,501.35 1039.28,503.01 C1042.80,505.59 1052.70,508.91 1057.56,509.62 C1054.41,509.60 1046.40,507.91 1041.73,505.41 C1036.58,502.60 1032.39,498.90 1032.16,498.31 C1032.29,498.20 1040.77,503.37 1049.10,507.39 C1053.44,509.47 1055.59,510.37 1056.45,510.43 C1055.81,509.62 1040.80,504.53 1038.23,502.92 C1037.94,502.73 1037.36,502.34 1036.50,501.75" fill="none" stroke="rgb(0, 0, 0)" stroke-width="8.00" stroke-opacity="1.00" stroke-linejoin="round"/>
</g>
</svg>
