<?xml version="1.0" encoding="UTF-8" standalone="no"?>
<!DOCTYPE svg PUBLIC "-//W3C//DTD SVG 1.1//EN" "http://www.w3.org/Graphics/SVG/1.1/DTD/svg11.dtd">
<svg width="374.40" height="178.32" viewBox="0.00 0.00 1560.00 743.00" xmlns="http://www.w3.org/2000/svg" xmlns:xlink="http://www.w3.org/1999/xlink">
<g stroke-linecap="round" transform="translate(-272.00, 0.00)" id="Layer_4">
<path d="M483.00,271.12 C481.47,269.77 480.74,269.15 479.54,268.23 C469.91,260.80 441.32,240.13 428.34,230.91 C415.73,222.14 385.44,201.47 375.91,196.13 C369.61,192.66 353.66,185.64 350.62,184.78 C347.68,183.98 342.29,184.05 339.80,184.82 C338.14,185.38 336.36,186.55 335.47,187.75 C333.96,189.89 332.86,195.84 333.28,198.28 C333.79,201.00 337.43,208.99 339.57,212.27 C341.87,215.73 346.16,220.54 348.97,223.05 C353.80,227.29 367.38,235.84 372.70,238.21 C383.50,242.97 399.36,245.62 404.16,246.28 C404.16,246.91 397.85,248.96 394.14,250.17 C384.47,253.36 375.79,257.16 370.48,261.05 C367.39,263.34 363.13,267.22 360.90,269.93 C358.92,272.37 356.19,277.38 355.41,279.56 C354.71,281.58 353.79,285.61 353.81,287.16 C353.90,290.28 357.22,296.84 359.53,299.06 C361.86,301.22 366.52,303.39 370.59,304.53 C374.58,305.58 378.57,305.75 383.31,304.94 C394.37,302.97 400.94,299.96 405.84,297.28 C405.54,296.87 398.00,301.37 396.00,302.91 C392.34,305.75 382.39,319.84 379.99,325.17 C378.75,328.02 377.47,333.91 377.92,336.87 C378.23,338.64 379.30,340.66 380.54,341.82 C382.79,343.80 388.47,345.34 391.73,345.18 C397.60,344.83 413.46,339.89 419.96,336.50 C426.53,333.03 434.51,327.00 443.65,318.80 C463.96,300.24 468.41,296.81 469.12,296.25" fill="none" stroke="rgb(254, 95, 94)" stroke-width="17.00" stroke-opacity="1.00" stroke-linejoin="round"/>
<path d="M1648.50,148.12 C1648.50,148.12 1633.97,159.84 1633.97,159.84 C1633.40,157.80 1633.19,156.30 1633.49,154.83 C1634.17,151.62 1641.24,134.19 1644.39,128.41 C1646.86,123.91 1655.13,111.50 1659.36,106.52 C1662.94,102.34 1674.48,91.00 1679.93,86.86 C1684.93,83.08 1701.51,72.89 1705.38,71.40 C1707.48,70.61 1713.59,70.15 1717.73,70.32 C1719.71,70.43 1722.54,71.15 1724.29,72.05 C1725.89,72.91 1728.23,75.26 1729.16,76.93 C1730.79,80.01 1731.86,87.82 1731.37,91.03 C1730.98,93.40 1728.12,100.79 1726.78,103.69 C1725.35,106.74 1722.83,111.01 1719.84,114.47 C1716.66,118.12 1700.51,133.68 1696.63,135.83 C1695.26,136.58 1694.48,136.81 1693.12,136.97 C1693.31,135.41 1696.60,131.52 1699.04,129.24 C1704.61,124.07 1714.49,117.09 1719.56,114.94 C1721.59,114.09 1727.79,112.10 1730.32,111.77 C1732.76,111.49 1737.72,112.47 1740.13,113.64 C1742.69,114.94 1745.63,118.87 1745.82,120.99 C1745.94,123.16 1743.28,128.40 1741.33,131.19 C1738.20,135.57 1725.95,146.29 1722.94,147.94 C1725.31,148.05 1731.02,149.90 1735.89,152.12 C1740.23,154.12 1746.64,158.05 1749.74,160.62 C1752.95,163.31 1757.04,167.55 1757.44,168.84 C1758.00,170.91 1757.83,172.90 1756.87,174.01 C1754.83,176.29 1750.18,179.82 1748.34,180.94 C1743.58,183.79 1728.94,188.89 1723.50,190.12 C1708.87,193.41 1693.67,193.57 1682.17,193.46 C1678.17,193.42 1674.99,193.15 1670.62,192.56" fill="none" stroke="rgb(254, 95, 94)" stroke-width="17.00" stroke-opacity="1.00" stroke-linejoin="round"/>
<path d="M1258.50,516.00 C1258.50,516.00 1257.13,513.41 1257.13,513.41 C1253.91,516.42 1250.77,521.46 1249.50,524.24 C1246.72,530.44 1242.72,544.44 1241.33,550.62 C1239.86,557.19 1237.75,573.34 1237.39,577.86 C1236.49,591.55 1236.39,625.02 1236.99,633.78 C1237.62,642.21 1240.48,651.52 1242.19,654.09 C1242.94,655.18 1245.01,656.59 1246.03,656.72 C1248.31,656.91 1253.43,653.90 1256.19,651.45 C1260.48,647.53 1267.92,635.03 1270.80,629.24 C1273.58,623.50 1276.55,613.80 1279.56,602.33 C1285.10,579.85 1285.35,569.88 1285.12,567.28 C1285.45,577.11 1287.02,587.40 1289.26,595.09 C1291.46,602.58 1297.18,615.42 1300.92,621.78 C1305.34,629.23 1312.85,638.40 1319.64,644.79 C1321.09,646.14 1323.48,647.90 1324.89,648.57 C1326.47,649.29 1333.38,649.49 1335.35,648.46 C1336.42,647.86 1338.09,646.38 1338.88,645.33 C1340.40,643.18 1341.71,635.73 1341.76,633.10 C1341.75,630.00 1334.23,609.54 1332.56,605.81 C1328.72,597.28 1325.63,593.20 1323.75,591.00 C1329.77,599.69 1335.74,606.97 1341.37,612.00 C1344.54,614.81 1350.12,619.07 1352.77,620.58 C1357.12,623.03 1365.79,626.31 1368.94,627.08 C1370.44,627.41 1373.39,627.24 1375.03,626.72 C1375.72,626.48 1377.86,624.46 1378.12,624.09 C1379.15,622.52 1379.27,617.77 1378.69,614.60 C1377.89,610.44 1372.08,593.74 1369.58,588.98 C1363.64,577.76 1347.37,555.74 1344.28,552.84 C1341.50,550.27 1335.52,546.70 1333.14,545.96 C1332.55,545.78 1330.87,545.25 1329.37,544.50" fill="none" stroke="rgb(254, 95, 94)" stroke-width="17.00" stroke-opacity="1.00" stroke-linejoin="round"/>
<path d="M1453.12,421.87 C1453.12,421.87 1451.76,421.22 1451.76,421.22 C1449.99,423.24 1448.92,427.84 1448.74,430.66 C1448.40,437.16 1449.74,451.83 1450.68,458.12 C1451.77,465.35 1455.10,479.20 1457.89,485.79 C1459.61,489.83 1467.70,505.24 1471.21,510.12 C1472.94,512.48 1478.55,519.00 1480.78,521.16 C1483.24,523.51 1489.31,528.14 1492.34,529.83 C1495.51,531.57 1500.63,533.70 1504.25,534.81 C1507.39,535.75 1513.92,536.70 1517.33,536.39 C1523.04,535.82 1534.95,532.00 1540.11,529.25 C1544.61,526.82 1558.06,515.97 1562.25,510.47 C1564.42,507.58 1568.20,501.53 1570.28,497.60 C1572.50,493.34 1574.97,487.14 1575.67,483.60 C1576.28,480.31 1575.94,474.13 1575.19,471.47 C1574.52,469.20 1571.27,462.68 1569.03,461.13 C1567.76,460.31 1564.67,459.97 1562.99,460.52 C1559.75,461.68 1554.48,466.27 1552.01,468.71 C1549.59,471.14 1546.57,476.53 1545.44,480.24 C1544.41,483.73 1543.28,492.62 1543.29,494.91 C1543.35,498.73 1545.23,505.40 1547.27,510.20 C1548.93,514.02 1551.79,518.88 1553.72,521.13 C1555.39,523.05 1560.39,527.67 1562.91,529.42 C1565.86,531.43 1571.50,534.46 1574.53,535.41 C1579.65,536.96 1595.57,537.57 1602.82,536.62 C1604.99,536.33 1614.04,534.35 1616.68,533.66 C1625.07,531.44 1634.90,526.74 1643.70,521.85 C1652.04,516.99 1664.08,509.33 1670.06,504.89 C1676.41,500.15 1687.78,490.12 1692.61,485.41 C1698.91,479.18 1707.32,468.44 1710.20,464.74" fill="none" stroke="rgb(247, 187, 59)" stroke-width="17.00" stroke-opacity="1.00" stroke-linejoin="round"/>
<path d="M572.00,232.00 C574.00,229.86 575.10,228.36 575.74,226.57 C577.23,222.35 580.47,206.79 580.64,202.08 C580.77,198.19 579.76,179.14 578.47,171.54 C577.29,164.72 572.13,146.24 571.25,143.75 C569.55,139.03 566.81,134.27 565.38,132.50 C563.27,129.96 558.53,126.14 555.08,124.94 C551.04,123.59 545.05,122.96 541.20,123.48 C537.81,123.97 530.24,126.55 526.62,128.38 C524.14,129.65 517.24,134.12 515.25,135.88 C512.67,138.19 507.63,144.73 506.32,147.66 C505.63,149.26 505.18,151.81 505.28,153.29 C505.41,154.68 506.14,157.09 506.82,158.41 C507.63,159.88 509.16,161.38 510.52,162.03 C511.77,162.58 513.97,162.88 515.23,162.64 C517.68,162.10 522.62,157.44 524.71,154.31 C526.98,150.83 528.98,145.81 529.72,142.24 C530.42,138.66 530.92,132.34 530.62,128.46 C530.05,121.81 525.19,108.02 521.50,101.02 C519.77,97.76 515.82,91.93 513.40,89.22 C510.96,86.53 505.56,81.67 502.42,79.20 C499.46,76.91 492.80,72.92 489.31,71.35 C482.91,68.50 468.76,65.81 461.12,65.50 C454.78,65.26 438.09,66.13 431.19,67.35 C425.84,68.31 409.32,72.67 404.03,74.46 C391.08,78.86 375.38,88.62 371.71,91.66" fill="none" stroke="rgb(247, 187, 59)" stroke-width="17.00" stroke-opacity="1.00" stroke-linejoin="round"/>
<path d="M1313.25,93.37 C1313.25,93.37 1312.80,94.50 1312.80,94.50 C1315.45,93.60 1319.77,90.90 1324.03,87.60 C1330.52,82.40 1338.93,72.11 1344.07,64.18 C1346.20,60.82 1349.23,55.16 1350.87,51.34 C1352.04,48.57 1352.43,45.22 1352.44,44.06 C1351.06,45.40 1349.51,49.98 1349.31,52.25 C1349.09,55.40 1351.17,62.14 1353.17,65.61 C1355.41,69.44 1358.95,74.12 1361.38,76.44 C1363.58,78.51 1368.30,81.51 1370.90,82.78 C1373.82,84.17 1379.01,85.86 1383.05,86.38 C1388.15,86.99 1393.98,86.79 1397.15,86.06 C1394.35,86.67 1389.22,90.14 1387.69,91.31 C1381.86,95.80 1372.55,106.41 1368.85,112.26 C1365.04,118.34 1357.75,131.74 1355.81,138.00 C1355.29,139.69 1352.43,151.14 1351.82,153.95 C1350.68,159.60 1349.78,166.30 1350.10,169.74 C1350.41,172.71 1351.50,175.77 1351.97,176.81 C1352.61,173.77 1352.33,168.25 1352.18,164.98 C1351.71,156.69 1349.33,144.65 1346.61,135.60 C1344.49,128.75 1339.46,115.91 1336.11,110.12 C1331.74,102.65 1327.30,97.10 1325.25,95.06" fill="none" stroke="rgb(142, 181, 234)" stroke-width="17.00" stroke-opacity="1.00" stroke-linejoin="round"/>
<path d="M579.75,537.37 C579.75,537.37 579.15,538.33 579.15,538.33 C580.38,541.10 581.26,542.36 582.46,542.76 C584.85,543.53 589.83,543.81 593.11,542.71 C596.71,541.46 604.38,536.82 606.84,534.94 C609.45,532.92 614.35,527.85 616.23,525.24 C619.80,520.20 625.79,507.15 626.44,502.50 C627.12,497.40 626.97,494.33 626.72,493.50 C626.38,495.94 626.80,499.64 627.98,503.16 C628.94,505.96 631.66,511.83 633.09,514.12 C634.52,516.38 639.27,522.33 641.77,525.00 C644.52,527.91 649.76,531.81 653.38,534.01 C655.68,535.40 662.80,539.17 666.59,539.91 C668.37,540.25 670.06,539.57 671.81,538.31 C671.72,537.24 671.04,536.09 669.94,535.87 C668.76,535.67 666.23,536.30 664.89,537.12 C662.03,538.95 656.42,544.45 654.28,547.03 C650.32,551.86 644.74,563.10 642.19,571.59 C641.09,575.29 636.45,594.97 635.89,599.72 C635.32,604.67 635.09,622.17 635.91,625.41 C635.78,623.25 631.07,604.94 628.84,600.50 C626.94,596.77 615.99,579.42 613.71,576.85 C611.55,574.46 605.83,570.01 602.26,567.61 C599.15,565.54 595.49,564.45 594.37,564.37" fill="none" stroke="rgb(142, 181, 234)" stroke-width="17.00" stroke-opacity="1.00" stroke-linejoin="round"/>
<path d="M1459.87,589.50 C1459.36,590.93 1459.79,592.98 1461.11,594.50 C1461.74,595.19 1464.30,594.85 1466.44,594.19 C1468.80,593.40 1473.64,590.37 1476.75,587.53 C1478.90,585.53 1481.92,581.59 1483.43,578.09 C1485.31,573.62 1486.27,568.25 1485.94,565.22 C1485.94,565.22 1484.25,564.75 1484.25,564.75 C1483.51,566.19 1485.88,571.20 1488.43,574.82 C1490.63,577.88 1495.77,581.56 1498.22,582.47 C1501.43,583.59 1507.36,583.33 1508.90,582.09 C1508.90,582.09 1498.40,652.03 1498.40,652.03 C1497.13,648.23 1490.40,630.58 1488.68,627.10 C1486.47,622.68 1477.96,611.10 1473.84,607.12 C1471.33,604.74 1469.05,603.47 1466.25,602.06" fill="none" stroke="rgb(142, 181, 234)" stroke-width="17.00" stroke-opacity="1.00" stroke-linejoin="round"/>
<path d="M1481.62,172.87 C1481.01,173.88 1479.48,176.38 1478.56,177.88 C1477.46,179.68 1476.64,180.18 1475.25,180.19 C1475.04,176.69 1476.73,160.69 1478.31,152.43 C1481.72,134.74 1486.50,121.08 1488.09,118.59 C1488.85,118.62 1489.16,119.06 1489.50,120.85 C1492.73,136.58 1503.04,174.34 1505.06,178.97 C1507.95,179.31 1509.22,179.20 1510.97,178.31 C1511.07,178.26 1531.64,168.36 1538.53,164.90 C1540.73,163.76 1555.70,155.98 1560.93,154.75 C1561.39,154.65 1562.11,154.50 1563.09,154.31 C1563.13,155.90 1562.87,156.83 1561.85,158.10 C1558.51,162.25 1549.66,171.70 1542.98,176.68 C1539.28,179.41 1518.86,193.29 1518.28,194.16 C1518.03,194.54 1517.56,195.51 1516.87,197.06 C1519.54,199.31 1533.86,204.47 1540.12,205.94 C1544.60,206.98 1566.57,210.87 1570.31,211.87 C1575.46,213.28 1578.93,215.29 1579.87,215.81 C1580.01,217.73 1579.69,218.91 1578.46,219.83 C1577.69,220.40 1525.73,247.90 1525.39,248.06 C1523.59,248.94 1522.90,249.68 1523.06,250.78 C1523.07,250.85 1530.00,275.61 1530.82,279.64 C1534.66,298.77 1534.41,307.68 1534.31,308.81 C1532.49,306.85 1529.73,300.93 1528.11,297.50 C1524.55,289.94 1517.24,274.71 1514.96,270.91 C1508.50,260.16 1495.48,242.55 1494.28,241.97 C1493.11,241.46 1490.67,241.68 1488.98,242.36 C1485.72,243.72 1468.72,253.45 1463.20,256.87 C1450.89,264.74 1429.57,281.46 1427.15,282.94 C1428.04,280.12 1428.60,278.88 1429.83,277.22 C1434.49,270.68 1443.84,257.53 1448.52,250.92 C1451.74,246.22 1459.20,233.46 1462.57,227.19 C1463.53,225.46 1463.75,224.38 1463.72,222.28 C1462.05,221.03 1461.09,220.62 1459.06,220.48 C1458.83,220.46 1434.86,218.00 1427.28,216.88 C1417.02,215.26 1408.57,212.07 1399.35,208.29 C1398.85,208.09 1398.15,207.82 1397.25,207.47 C1398.50,206.94 1411.96,205.75 1422.82,203.57 C1430.10,201.91 1443.31,198.76 1450.45,196.67 C1456.65,194.81 1463.80,192.66 1464.75,192.37" fill="none" stroke="rgb(152, 138, 238)" stroke-width="17.00" stroke-opacity="1.00" stroke-linejoin="round"/>
<path d="M425.25,438.75 C425.39,440.45 425.22,441.86 424.51,443.62 C423.29,446.59 421.21,449.60 420.28,450.84 C421.12,421.49 425.28,382.25 426.37,375.09 C427.67,376.13 428.22,376.99 428.68,378.96 C432.52,394.67 442.47,431.40 445.54,438.09 C445.85,438.77 447.46,441.56 447.84,441.94 C449.54,443.49 452.15,442.55 456.19,440.06 C464.57,434.69 476.20,428.08 483.32,424.76 C491.78,420.94 496.50,420.32 497.44,420.19 C497.85,421.51 497.78,422.31 496.93,423.92 C493.69,430.19 485.03,440.76 477.20,449.53 C475.32,451.65 473.54,453.55 473.34,453.84 C472.25,455.55 472.22,457.24 473.38,458.85 C475.73,461.98 487.90,473.30 493.95,478.84 C506.52,489.98 524.70,504.11 529.22,508.31 C526.52,507.50 513.14,497.83 505.87,494.44 C499.81,491.64 483.32,486.41 476.79,484.55 C472.74,483.41 464.76,482.67 463.87,483.19 C462.65,483.98 462.10,485.88 462.38,488.01 C462.45,488.51 464.13,512.29 464.06,518.61 C464.03,520.65 461.62,571.96 460.98,577.41 C460.73,579.53 459.89,583.86 459.75,584.62 C458.26,581.68 447.49,542.79 442.49,524.72 C439.22,513.50 435.84,503.26 432.37,497.62 C431.56,496.33 430.17,494.72 428.62,493.31 C427.38,492.25 424.74,491.58 423.56,492.28 C422.45,492.97 420.30,495.65 418.56,496.87 C412.30,501.32 399.75,508.23 392.77,510.79 C385.68,513.37 369.35,516.08 368.06,515.72 C373.53,511.40 385.49,501.78 390.02,497.22 C394.17,493.03 411.95,471.60 414.75,468.19 C411.24,471.07 406.77,474.23 403.12,475.50 C400.12,476.49 393.16,476.47 389.36,475.53 C382.17,473.67 368.98,467.87 361.75,463.71 C348.46,456.02 335.24,444.17 331.03,440.25 C333.21,438.82 334.82,438.26 337.10,438.45 C344.26,439.09 358.94,442.16 366.06,444.42 C370.58,445.86 390.00,453.27 394.59,454.91 C401.74,457.38 411.18,458.94 414.19,459.00" fill="none" stroke="rgb(152, 138, 238)" stroke-width="17.00" stroke-opacity="1.00" stroke-linejoin="round"/>
<path d="M790.12,562.12 C787.53,561.16 785.30,560.74 783.49,561.02 C781.27,561.39 777.46,564.06 775.14,566.89 C773.32,569.18 770.47,574.96 769.78,578.16 C769.27,580.64 769.02,588.10 769.50,592.41 C770.12,597.77 774.04,613.54 776.49,620.04 C779.15,627.05 785.50,637.59 791.27,644.74 C796.78,651.49 803.81,658.12 809.25,662.01 C814.72,665.91 826.99,672.25 831.94,673.69 C836.67,675.03 850.32,676.22 857.72,675.80 C865.01,675.35 878.80,671.55 885.30,668.83 C891.63,666.15 902.68,658.27 909.23,652.62 C916.30,646.31 924.42,637.98 929.07,632.08 C933.17,626.83 939.40,616.02 942.09,609.15 C943.32,605.91 943.96,599.80 942.80,597.34 C942.20,596.18 940.53,594.36 939.40,593.68 C937.96,592.88 935.57,592.90 933.76,593.77 C930.89,595.22 926.42,599.93 925.03,602.72 C924.04,604.76 921.79,612.34 921.28,614.72 C920.22,619.84 920.71,631.91 921.91,637.82 C922.57,640.96 924.79,647.30 926.66,650.40 C930.00,655.84 939.98,666.42 945.53,670.06 C951.16,673.71 964.60,679.58 969.75,680.81 C975.06,682.05 989.26,682.90 997.14,682.58 C1004.85,682.14 1014.51,680.75 1023.40,678.60 C1033.18,676.14 1044.74,672.05 1051.69,668.54 C1057.45,665.60 1075.22,654.75 1078.59,652.41 C1084.47,648.29 1095.10,639.01 1099.86,633.31 C1102.13,630.56 1106.35,624.42 1108.20,621.34 C1110.11,618.12 1112.77,611.57 1113.28,608.91 C1113.64,606.82 1113.70,603.29 1113.28,601.87 C1112.94,600.75 1111.66,598.51 1110.73,597.07" fill="none" stroke="rgb(253, 156, 167)" stroke-width="17.00" stroke-opacity="1.00" stroke-linejoin="round"/>
<path d="M1134.00,555.00 C1133.27,554.71 1132.76,554.51 1132.46,554.41 C1130.41,553.77 1128.21,553.89 1126.84,555.00 C1125.57,556.07 1123.82,558.47 1123.27,559.80 C1122.20,562.58 1121.36,569.06 1121.73,571.63 C1122.12,574.06 1124.34,577.49 1126.31,578.72 C1128.30,579.89 1132.20,579.95 1134.55,579.08 C1136.91,578.18 1141.99,574.66 1143.98,572.58 C1144.90,571.56 1146.09,568.99 1146.19,567.47 C1146.26,565.56 1145.04,563.29 1143.33,561.78 C1141.31,560.05 1138.69,558.35 1137.65,557.53 C1136.98,557.00 1134.81,554.58 1134.00,553.69" fill="none" stroke="rgb(130, 238, 236)" stroke-width="17.00" stroke-opacity="1.00" stroke-linejoin="round"/>
<path d="M1202.25,133.50 C1203.62,129.22 1204.29,125.56 1203.82,121.79 C1202.85,114.63 1199.65,102.84 1196.63,97.63 C1194.90,94.69 1190.34,89.10 1188.00,86.63 C1185.63,84.15 1180.94,80.31 1178.37,78.62 C1173.59,75.53 1161.59,71.23 1154.60,69.86 C1148.07,68.62 1133.80,68.69 1127.31,69.51 C1120.22,70.44 1106.45,74.08 1100.10,76.66 C1091.32,80.25 1079.64,87.01 1074.60,91.76 C1069.60,96.53 1064.40,104.35 1064.34,105.66 C1064.30,107.37 1065.02,110.04 1065.82,111.15 C1067.35,113.16 1071.44,115.38 1073.80,115.82 C1076.35,116.25 1082.41,115.36 1085.69,114.31 C1089.75,112.98 1095.55,110.47 1098.19,108.66 C1101.11,106.59 1105.05,101.05 1106.15,97.50 C1107.07,94.42 1106.46,88.03 1105.36,84.77 C1104.31,81.77 1100.71,75.23 1098.78,72.23 C1096.80,69.17 1092.40,63.85 1090.02,61.49 C1085.38,56.95 1073.25,49.64 1066.17,46.45 C1059.38,43.43 1047.33,40.11 1038.21,38.45 C1030.61,37.12 1015.54,36.41 1008.25,37.15 C1001.11,37.90 989.27,40.57 979.97,43.36 C970.60,46.30 960.13,50.17 955.40,52.49 C951.47,54.42 934.26,64.01 927.05,68.13 C923.51,70.19 920.15,72.49 917.06,74.81" fill="none" stroke="rgb(130, 238, 236)" stroke-width="17.00" stroke-opacity="1.00" stroke-linejoin="round"/>
<path d="M1266.37,55.12 C1263.58,56.71 1258.07,60.83 1256.48,62.75 C1255.13,64.45 1254.29,67.37 1254.65,69.20 C1255.05,70.90 1257.10,73.07 1259.06,74.06 C1260.99,74.98 1267.47,75.63 1270.31,75.00 C1273.24,74.30 1278.98,70.95 1280.81,68.91 C1281.56,68.03 1282.45,65.98 1282.50,65.06 C1282.51,63.02 1279.25,58.59 1276.59,57.00 C1275.43,56.33 1272.31,55.32 1270.69,55.03 C1267.08,54.46 1245.86,58.64 1242.70,59.63" fill="none" stroke="rgb(130, 238, 236)" stroke-width="17.00" stroke-opacity="1.00" stroke-linejoin="round"/>
<path d="M872.25,119.25 C870.01,120.66 866.63,124.90 865.26,128.74 C864.44,131.14 865.71,136.17 866.72,137.27 C868.01,138.61 870.28,139.97 871.49,140.12 C873.93,140.35 878.30,139.34 880.44,138.07 C881.50,137.41 882.82,135.30 883.41,133.41 C883.96,131.48 882.57,127.39 880.69,125.72 C878.99,124.30 874.02,123.35 869.72,124.12 C867.22,124.60 858.42,127.52 856.15,128.68 C853.69,129.96 843.22,137.81 841.98,138.75" fill="none" stroke="rgb(130, 238, 236)" stroke-width="17.00" stroke-opacity="1.00" stroke-linejoin="round"/>
<path d="M735.00,489.00 C732.94,489.77 731.45,490.69 730.61,492.12 C729.60,493.91 728.50,497.68 728.79,499.20 C729.13,500.81 730.79,503.53 731.91,504.59 C734.06,506.50 737.68,507.77 739.89,507.49 C742.27,507.13 747.93,504.10 750.30,501.63 C752.48,499.29 754.78,495.16 755.20,492.76 C755.37,491.54 754.84,488.59 754.12,487.03 C753.33,485.38 749.26,482.81 746.44,482.16 C745.54,481.95 743.19,481.48 742.32,481.31" fill="none" stroke="rgb(130, 238, 236)" stroke-width="17.00" stroke-opacity="1.00" stroke-linejoin="round"/>
<path d="M554.25,439.50 C553.57,439.57 552.99,439.79 552.80,440.30 C552.47,441.25 552.89,444.05 553.70,445.94 C554.33,447.38 560.18,454.71 561.47,455.81 C563.14,457.21 565.32,458.34 566.91,458.62 C569.81,459.07 573.29,458.19 575.34,456.37 C577.59,454.31 580.42,449.45 580.69,446.91 C580.88,444.55 579.12,438.09 577.59,436.03 C576.80,435.01 574.23,433.11 573.09,432.66 C571.04,431.90 565.20,432.56 562.97,434.06 C561.86,434.82 559.10,437.24 557.25,438.94" fill="none" stroke="rgb(130, 238, 236)" stroke-width="17.00" stroke-opacity="1.00" stroke-linejoin="round"/>
<path d="M1540.87,374.25 C1537.54,373.06 1529.82,370.72 1527.67,371.26 C1526.53,371.59 1523.47,374.31 1523.05,375.38 C1522.50,376.92 1522.52,379.74 1522.99,381.15 C1524.03,383.98 1527.40,388.79 1529.32,390.28 C1531.19,391.69 1534.81,392.30 1537.58,392.06 C1538.89,391.90 1541.11,390.31 1542.19,388.69 C1542.65,387.96 1543.14,384.16 1543.12,383.44 C1542.98,380.65 1540.00,375.33 1536.94,372.84 C1535.58,371.77 1528.29,367.86 1526.01,367.24 C1523.31,366.53 1512.42,366.13 1510.50,366.56 C1508.60,367.00 1506.10,368.26 1504.87,369.19" fill="none" stroke="rgb(130, 238, 236)" stroke-width="17.00" stroke-opacity="1.00" stroke-linejoin="round"/>
</g>
</svg>
